<svg xmlns="http://www.w3.org/2000/svg" xmlns:xlink="http://www.w3.org/1999/xlink" width="500" zoomAndPan="magnify" viewBox="0 0 375 374.999991" height="500" preserveAspectRatio="xMidYMid meet" version="1.0"><defs><g/><clipPath id="2aea792813"><rect x="0" width="262" y="0" height="88"/></clipPath></defs><g transform="matrix(1, 0, 0, 1, 56, 145)"><g clip-path="url(#2aea792813)"><g fill="#ffffff" fill-opacity="1"><g transform="translate(6.507575, 64.606212)"><g><path d="M 16.9375 5.410156 C 13.429688 5.410156 10.621094 4.914062 8.507812 3.925781 C 6.222656 2.855469 4.5 1.308594 3.339844 -0.714844 C 2.273438 -2.574219 1.636719 -4.761719 1.425781 -7.277344 C 1.25 -9.421875 1.160156 -11.804688 1.160156 -14.425781 C 1.160156 -16.507812 1.226562 -18.601562 1.359375 -20.707031 C 1.488281 -22.792969 1.6875 -25.019531 1.949219 -27.386719 L 5.023438 -27.046875 L 5.023438 -23.957031 C 4.484375 -23.957031 4.078125 -23.945312 3.800781 -23.929688 C 3.390625 -23.902344 3.046875 -23.890625 2.769531 -23.890625 C 0.828125 -23.890625 -0.890625 -24.335938 -2.386719 -25.226562 C -3.375 -25.816406 -4.128906 -26.589844 -4.652344 -27.542969 C -5.15625 -28.46875 -5.410156 -29.503906 -5.410156 -30.652344 C -5.410156 -32.257812 -4.832031 -33.660156 -3.675781 -34.859375 C -2.835938 -35.730469 -1.796875 -36.460938 -0.554688 -37.050781 C 0.535156 -37.570312 1.710938 -37.984375 2.96875 -38.292969 C 4.167969 -38.585938 5.320312 -38.78125 6.417969 -38.882812 L 6.695312 -35.804688 L 3.605469 -35.804688 C 3.605469 -37.128906 3.699219 -38.578125 3.886719 -40.15625 C 4.082031 -41.847656 4.449219 -43.4375 4.976562 -44.921875 C 5.5625 -46.574219 6.378906 -47.980469 7.425781 -49.140625 C 8.8125 -50.683594 10.566406 -51.453125 12.6875 -51.453125 C 14.066406 -51.453125 15.300781 -51.039062 16.390625 -50.210938 C 17.277344 -49.539062 17.996094 -48.703125 18.546875 -47.699219 C 19.035156 -46.816406 19.394531 -45.84375 19.632812 -44.78125 C 19.851562 -43.789062 19.964844 -42.8125 19.964844 -41.859375 C 19.964844 -40.851562 19.886719 -39.828125 19.738281 -38.78125 C 19.59375 -37.765625 19.335938 -36.539062 18.964844 -35.097656 L 15.96875 -35.867188 L 15.609375 -38.9375 C 16.375 -39.027344 16.902344 -39.085938 17.195312 -39.109375 C 17.539062 -39.140625 17.859375 -39.152344 18.160156 -39.152344 C 19.054688 -39.152344 19.984375 -39.074219 20.941406 -38.921875 C 22.003906 -38.746094 22.992188 -38.453125 23.90625 -38.042969 C 24.984375 -37.554688 25.886719 -36.894531 26.609375 -36.0625 C 27.546875 -34.988281 28.011719 -33.71875 28.011719 -32.261719 C 28.011719 -30.613281 27.386719 -29.1875 26.136719 -27.976562 C 25.257812 -27.128906 24.183594 -26.417969 22.917969 -25.84375 C 21.773438 -25.324219 20.558594 -24.921875 19.273438 -24.640625 C 18.074219 -24.375 16.9375 -24.195312 15.863281 -24.097656 L 15.582031 -27.175781 L 18.640625 -26.726562 C 18.394531 -25.042969 18.222656 -23.496094 18.121094 -22.089844 C 18.011719 -20.59375 17.890625 -19.089844 17.761719 -17.574219 L 17.757812 -17.523438 L 17.753906 -17.476562 C 17.671875 -16.777344 17.597656 -16.070312 17.535156 -15.351562 C 17.480469 -14.6875 17.453125 -14.015625 17.453125 -13.328125 C 17.453125 -12.832031 17.472656 -12.234375 17.511719 -11.542969 C 17.535156 -11.105469 17.621094 -10.6875 17.769531 -10.292969 C 17.847656 -10.085938 17.972656 -9.90625 18.148438 -9.753906 C 18.101562 -9.792969 18.066406 -9.820312 18.039062 -9.828125 C 18.117188 -9.800781 18.246094 -9.789062 18.417969 -9.789062 C 18.847656 -9.789062 19.300781 -9.828125 19.777344 -9.90625 C 20.589844 -10.042969 21.402344 -10.109375 22.214844 -10.109375 C 23.242188 -10.109375 24.171875 -9.914062 24.996094 -9.515625 C 25.925781 -9.070312 26.675781 -8.40625 27.238281 -7.523438 C 28.054688 -6.246094 28.464844 -4.703125 28.464844 -2.898438 C 28.464844 -1.269531 27.964844 0.160156 26.972656 1.394531 C 26.15625 2.40625 25.136719 3.21875 23.921875 3.828125 C 22.871094 4.351562 21.710938 4.75 20.445312 5.019531 C 19.222656 5.28125 18.054688 5.410156 16.9375 5.410156 Z M 16.9375 -0.773438 C 17.621094 -0.773438 18.363281 -0.859375 19.160156 -1.027344 C 19.910156 -1.1875 20.574219 -1.414062 21.15625 -1.703125 C 21.570312 -1.910156 21.90625 -2.171875 22.160156 -2.488281 C 22.242188 -2.585938 22.28125 -2.722656 22.28125 -2.898438 C 22.28125 -3.496094 22.195312 -3.929688 22.027344 -4.195312 C 22.097656 -4.085938 22.195312 -4.003906 22.320312 -3.941406 C 22.351562 -3.925781 22.375 -3.917969 22.386719 -3.917969 C 22.347656 -3.925781 22.289062 -3.929688 22.214844 -3.929688 C 21.742188 -3.929688 21.269531 -3.886719 20.792969 -3.808594 C 19.980469 -3.671875 19.1875 -3.605469 18.417969 -3.605469 C 16.648438 -3.605469 15.195312 -4.113281 14.050781 -5.121094 C 13.109375 -5.957031 12.417969 -6.957031 11.980469 -8.125 C 11.613281 -9.101562 11.398438 -10.125 11.339844 -11.191406 C 11.292969 -12 11.269531 -12.714844 11.269531 -13.328125 C 11.269531 -14.191406 11.304688 -15.039062 11.378906 -15.878906 C 11.445312 -16.664062 11.523438 -17.4375 11.613281 -18.199219 L 14.683594 -17.835938 L 11.601562 -18.101562 C 11.730469 -19.589844 11.847656 -21.070312 11.953125 -22.535156 C 12.066406 -24.09375 12.257812 -25.789062 12.523438 -27.621094 L 12.878906 -30.035156 L 15.304688 -30.253906 C 16.121094 -30.328125 17 -30.46875 17.945312 -30.675781 C 18.808594 -30.867188 19.613281 -31.132812 20.359375 -31.46875 C 20.980469 -31.753906 21.472656 -32.070312 21.839844 -32.425781 C 21.867188 -32.449219 21.882812 -32.46875 21.894531 -32.484375 C 21.886719 -32.476562 21.878906 -32.460938 21.871094 -32.445312 C 21.84375 -32.382812 21.832031 -32.320312 21.832031 -32.261719 C 21.832031 -32.179688 21.867188 -32.09375 21.945312 -32.003906 C 21.8125 -32.160156 21.617188 -32.292969 21.363281 -32.40625 C 20.945312 -32.597656 20.476562 -32.730469 19.949219 -32.816406 C 19.320312 -32.917969 18.722656 -32.972656 18.160156 -32.972656 C 18.03125 -32.972656 17.878906 -32.964844 17.707031 -32.949219 C 17.484375 -32.929688 17.027344 -32.878906 16.332031 -32.796875 L 11.847656 -32.273438 L 12.976562 -36.640625 C 13.292969 -37.863281 13.507812 -38.867188 13.617188 -39.65625 C 13.726562 -40.410156 13.78125 -41.144531 13.78125 -41.859375 C 13.78125 -42.359375 13.71875 -42.890625 13.597656 -43.441406 C 13.488281 -43.925781 13.335938 -44.347656 13.136719 -44.710938 C 13.003906 -44.953125 12.839844 -45.144531 12.652344 -45.289062 C 12.667969 -45.277344 12.679688 -45.269531 12.6875 -45.269531 C 12.402344 -45.269531 12.179688 -45.183594 12.023438 -45.007812 C 11.523438 -44.449219 11.113281 -43.730469 10.800781 -42.851562 C 10.429688 -41.800781 10.167969 -40.664062 10.023438 -39.4375 C 9.867188 -38.097656 9.789062 -36.886719 9.789062 -35.804688 L 9.789062 -32.980469 L 6.976562 -32.726562 C 6.1875 -32.652344 5.339844 -32.507812 4.4375 -32.285156 C 3.589844 -32.078125 2.8125 -31.804688 2.101562 -31.46875 C 1.539062 -31.199219 1.097656 -30.898438 0.777344 -30.566406 C 0.753906 -30.546875 0.742188 -30.53125 0.734375 -30.515625 C 0.738281 -30.523438 0.742188 -30.53125 0.746094 -30.546875 C 0.765625 -30.585938 0.773438 -30.621094 0.773438 -30.652344 C 0.773438 -30.578125 0.777344 -30.519531 0.785156 -30.480469 C 0.785156 -30.484375 0.78125 -30.492188 0.773438 -30.507812 C 0.757812 -30.535156 0.742188 -30.554688 0.726562 -30.574219 C 0.730469 -30.566406 0.75 -30.554688 0.777344 -30.539062 C 1.296875 -30.230469 1.960938 -30.074219 2.769531 -30.074219 C 2.917969 -30.074219 3.132812 -30.082031 3.414062 -30.097656 C 3.820312 -30.125 4.359375 -30.136719 5.023438 -30.136719 L 8.476562 -30.136719 L 8.09375 -26.707031 C 7.84375 -24.4375 7.652344 -22.304688 7.527344 -20.316406 C 7.402344 -18.339844 7.339844 -16.378906 7.339844 -14.425781 C 7.339844 -11.976562 7.421875 -9.765625 7.589844 -7.792969 C 7.722656 -6.1875 8.09375 -4.855469 8.703125 -3.792969 C 9.214844 -2.898438 10.027344 -2.191406 11.132812 -1.671875 C 12.410156 -1.074219 14.347656 -0.773438 16.9375 -0.773438 Z M 16.9375 -0.773438 "/></g></g></g><g fill="#ffffff" fill-opacity="1"><g transform="translate(35.125335, 64.606212)"><g><path d="M 14.167969 4.957031 C 11.320312 4.957031 8.8125 4.1875 6.644531 2.648438 C 4.675781 1.25 3.023438 -0.53125 1.6875 -2.6875 C 0.402344 -4.761719 -0.558594 -7.058594 -1.195312 -9.578125 C -1.816406 -12.039062 -2.125 -14.46875 -2.125 -16.871094 C -2.125 -19.382812 -1.820312 -21.960938 -1.210938 -24.617188 C -0.582031 -27.34375 0.390625 -29.84375 1.707031 -32.109375 C 3.09375 -34.496094 4.871094 -36.453125 7.046875 -37.980469 C 9.382812 -39.621094 12.121094 -40.441406 15.261719 -40.441406 C 18.367188 -40.441406 21.046875 -39.570312 23.300781 -37.832031 C 25.351562 -36.25 26.996094 -34.285156 28.234375 -31.933594 C 29.410156 -29.703125 30.242188 -27.273438 30.730469 -24.648438 C 31.207031 -22.078125 31.371094 -19.636719 31.226562 -17.324219 C 31.085938 -14.867188 30.703125 -12.382812 30.078125 -9.875 C 29.421875 -7.257812 28.457031 -4.890625 27.179688 -2.78125 C 25.828125 -0.546875 24.109375 1.277344 22.015625 2.691406 C 19.773438 4.203125 17.160156 4.957031 14.167969 4.957031 Z M 14.167969 -1.222656 C 15.898438 -1.222656 17.359375 -1.625 18.554688 -2.433594 C 19.898438 -3.339844 21.007812 -4.519531 21.890625 -5.976562 C 22.84375 -7.558594 23.574219 -9.359375 24.078125 -11.375 C 24.613281 -13.503906 24.9375 -15.617188 25.054688 -17.707031 C 25.167969 -19.515625 25.035156 -21.453125 24.652344 -23.519531 C 24.277344 -25.53125 23.652344 -27.375 22.765625 -29.050781 C 21.945312 -30.605469 20.863281 -31.902344 19.523438 -32.9375 C 18.382812 -33.820312 16.964844 -34.257812 15.261719 -34.257812 C 13.421875 -34.257812 11.867188 -33.8125 10.597656 -32.921875 C 9.167969 -31.914062 7.984375 -30.609375 7.050781 -29.003906 C 6.050781 -27.277344 5.304688 -25.351562 4.816406 -23.230469 C 4.308594 -21.03125 4.058594 -18.914062 4.058594 -16.871094 C 4.058594 -14.980469 4.304688 -13.054688 4.800781 -11.09375 C 5.28125 -9.191406 5.996094 -7.472656 6.941406 -5.941406 C 7.839844 -4.492188 8.933594 -3.308594 10.226562 -2.390625 C 11.320312 -1.613281 12.636719 -1.222656 14.167969 -1.222656 Z M 14.8125 -24.148438 C 15.0625 -24.148438 15.292969 -24.210938 15.5 -24.335938 C 15.558594 -24.371094 15.605469 -24.40625 15.640625 -24.441406 L 15.644531 -24.445312 C 15.636719 -24.433594 15.625 -24.421875 15.613281 -24.40625 C 15.308594 -23.976562 15.042969 -23.421875 14.820312 -22.738281 C 14.550781 -21.910156 14.339844 -21.027344 14.195312 -20.09375 C 14.046875 -19.160156 13.972656 -18.363281 13.972656 -17.710938 C 13.972656 -16.84375 14.058594 -15.890625 14.226562 -14.851562 C 14.390625 -13.820312 14.617188 -12.882812 14.902344 -12.039062 C 15.144531 -11.335938 15.414062 -10.78125 15.714844 -10.375 C 15.726562 -10.359375 15.734375 -10.347656 15.742188 -10.339844 C 15.742188 -10.339844 15.738281 -10.34375 15.734375 -10.347656 C 15.699219 -10.382812 15.648438 -10.417969 15.589844 -10.453125 C 15.394531 -10.566406 15.175781 -10.625 14.941406 -10.625 C 14.757812 -10.625 14.582031 -10.582031 14.417969 -10.488281 C 14.359375 -10.457031 14.308594 -10.421875 14.265625 -10.386719 L 14.257812 -10.382812 C 14.523438 -10.730469 14.753906 -11.21875 14.945312 -11.847656 C 15.1875 -12.648438 15.367188 -13.546875 15.472656 -14.535156 C 15.589844 -15.605469 15.648438 -16.597656 15.648438 -17.515625 C 15.648438 -18.304688 15.574219 -19.191406 15.425781 -20.175781 C 15.277344 -21.144531 15.070312 -22.042969 14.800781 -22.867188 C 14.589844 -23.519531 14.34375 -24.027344 14.066406 -24.394531 C 14.054688 -24.40625 14.046875 -24.414062 14.042969 -24.421875 C 14.042969 -24.417969 14.046875 -24.414062 14.054688 -24.410156 C 14.089844 -24.375 14.140625 -24.339844 14.199219 -24.308594 C 14.386719 -24.203125 14.589844 -24.148438 14.8125 -24.148438 Z M 14.8125 -30.332031 C 15.675781 -30.332031 16.488281 -30.117188 17.242188 -29.6875 C 17.894531 -29.320312 18.46875 -28.808594 18.972656 -28.15625 C 19.679688 -27.230469 20.25 -26.109375 20.679688 -24.785156 C 21.054688 -23.636719 21.339844 -22.40625 21.539062 -21.101562 C 21.734375 -19.808594 21.832031 -18.613281 21.832031 -17.515625 C 21.832031 -16.375 21.761719 -15.15625 21.621094 -13.863281 C 21.46875 -12.492188 21.214844 -11.21875 20.859375 -10.046875 C 20.449219 -8.703125 19.886719 -7.558594 19.164062 -6.621094 C 18.652344 -5.953125 18.054688 -5.433594 17.378906 -5.0625 C 16.621094 -4.648438 15.808594 -4.441406 14.941406 -4.441406 C 14.058594 -4.441406 13.234375 -4.667969 12.46875 -5.117188 C 11.820312 -5.496094 11.25 -6.019531 10.75 -6.691406 C 10.066406 -7.613281 9.5 -8.734375 9.050781 -10.046875 C 8.652344 -11.222656 8.339844 -12.496094 8.121094 -13.871094 C 7.902344 -15.234375 7.792969 -16.515625 7.792969 -17.710938 C 7.792969 -18.683594 7.890625 -19.800781 8.085938 -21.054688 C 8.285156 -22.3125 8.570312 -23.511719 8.941406 -24.65625 C 9.363281 -25.949219 9.914062 -27.066406 10.59375 -28.011719 C 11.089844 -28.699219 11.65625 -29.238281 12.304688 -29.628906 C 13.078125 -30.097656 13.914062 -30.332031 14.8125 -30.332031 Z M 14.8125 -30.332031 "/></g></g></g><g fill="#ffffff" fill-opacity="1"><g transform="translate(68.508187, 64.606212)"><g><path d="M 15.90625 21.832031 C 14.625 21.832031 13.210938 21.640625 11.65625 21.257812 C 10.109375 20.878906 8.648438 20.332031 7.269531 19.617188 C 5.792969 18.847656 4.53125 17.90625 3.496094 16.78125 C 2.152344 15.332031 1.480469 13.644531 1.480469 11.71875 C 1.480469 10.804688 1.695312 9.914062 2.128906 9.050781 C 2.523438 8.261719 3.054688 7.574219 3.71875 6.988281 C 4.316406 6.460938 4.972656 6.035156 5.6875 5.714844 C 6.519531 5.339844 7.394531 5.152344 8.308594 5.152344 C 9.128906 5.152344 9.933594 5.269531 10.71875 5.511719 C 11.3125 5.691406 11.914062 5.90625 12.523438 6.160156 L 11.332031 9.015625 L 12.445312 6.128906 C 12.945312 6.324219 13.4375 6.496094 13.917969 6.652344 C 14.148438 6.722656 14.402344 6.761719 14.683594 6.761719 C 14.953125 6.761719 15.1875 6.667969 15.390625 6.480469 C 15.890625 6.023438 16.332031 5.386719 16.71875 4.570312 C 17.183594 3.585938 17.5625 2.476562 17.859375 1.246094 C 18.175781 -0.09375 18.425781 -1.421875 18.605469 -2.734375 C 18.789062 -4.085938 18.921875 -5.347656 19.003906 -6.523438 C 19.089844 -7.753906 19.152344 -8.75 19.195312 -9.507812 L 22.28125 -9.335938 L 24.859375 -7.632812 C 23.1875 -5.101562 21.492188 -3.125 19.773438 -1.707031 C 17.722656 -0.0117188 15.25 0.835938 12.363281 0.835938 C 10.195312 0.835938 8.261719 0.363281 6.570312 -0.589844 C 4.976562 -1.480469 3.625 -2.652344 2.507812 -4.105469 C 1.46875 -5.457031 0.617188 -6.988281 -0.046875 -8.703125 C -0.679688 -10.324219 -1.148438 -12.007812 -1.464844 -13.746094 C -1.765625 -15.414062 -1.960938 -17.050781 -2.054688 -18.65625 C -2.148438 -20.269531 -2.148438 -21.761719 -2.054688 -23.136719 L 1.03125 -22.925781 L -2.058594 -23.066406 C -2.011719 -24.09375 -1.886719 -25.410156 -1.683594 -27.015625 C -1.46875 -28.703125 -1.125 -30.359375 -0.648438 -31.976562 C -0.109375 -33.804688 0.660156 -35.371094 1.667969 -36.6875 C 2.367188 -37.597656 3.199219 -38.277344 4.171875 -38.71875 C 5.152344 -39.167969 6.214844 -39.355469 7.359375 -39.273438 C 9.085938 -39.183594 10.496094 -38.433594 11.589844 -37.019531 C 12.324219 -36.074219 12.90625 -34.933594 13.339844 -33.605469 C 13.722656 -32.433594 14 -31.160156 14.175781 -29.789062 C 14.335938 -28.515625 14.441406 -27.253906 14.488281 -26 C 14.53125 -24.78125 14.542969 -23.65625 14.519531 -22.632812 C 14.5 -21.6875 14.488281 -20.96875 14.488281 -20.476562 C 14.488281 -19.808594 14.507812 -19.140625 14.546875 -18.46875 C 14.570312 -18.113281 14.632812 -17.816406 14.738281 -17.578125 C 14.746094 -17.566406 14.753906 -17.554688 14.769531 -17.542969 C 14.738281 -17.566406 14.710938 -17.578125 14.6875 -17.589844 C 14.703125 -17.582031 14.726562 -17.578125 14.757812 -17.570312 C 14.914062 -17.535156 15.125 -17.515625 15.390625 -17.515625 C 15.757812 -17.515625 15.984375 -17.554688 16.078125 -17.628906 C 16.335938 -17.847656 16.527344 -18.125 16.660156 -18.464844 C 16.878906 -19.03125 17.015625 -19.65625 17.078125 -20.332031 C 17.15625 -21.207031 17.195312 -22.027344 17.195312 -22.796875 L 17.195312 -24.984375 C 17.195312 -25.867188 17.203125 -26.792969 17.226562 -27.761719 C 17.25 -28.847656 17.351562 -29.925781 17.523438 -30.988281 C 17.714844 -32.160156 18.019531 -33.238281 18.441406 -34.222656 C 18.945312 -35.398438 19.644531 -36.378906 20.527344 -37.160156 C 21.648438 -38.144531 23.027344 -38.636719 24.664062 -38.636719 C 26.640625 -38.636719 28.320312 -37.886719 29.703125 -36.386719 C 30.738281 -35.269531 31.59375 -33.855469 32.269531 -32.148438 C 32.875 -30.617188 33.359375 -28.945312 33.71875 -27.128906 C 34.058594 -25.410156 34.316406 -23.699219 34.5 -21.996094 C 34.675781 -20.328125 34.800781 -18.785156 34.867188 -17.375 C 34.933594 -15.972656 34.96875 -14.859375 34.96875 -14.039062 C 34.96875 -12.175781 34.902344 -10.070312 34.769531 -7.714844 C 34.636719 -5.324219 34.378906 -2.867188 34 -0.34375 C 33.609375 2.238281 33.027344 4.773438 32.25 7.261719 C 31.4375 9.867188 30.367188 12.207031 29.039062 14.289062 C 27.617188 16.507812 25.863281 18.296875 23.773438 19.65625 C 21.542969 21.105469 18.921875 21.832031 15.90625 21.832031 Z M 15.90625 15.648438 C 17.699219 15.648438 19.199219 15.257812 20.402344 14.472656 C 21.746094 13.601562 22.890625 12.425781 23.832031 10.957031 C 24.863281 9.34375 25.703125 7.5 26.347656 5.421875 C 27.03125 3.234375 27.542969 1.003906 27.886719 -1.265625 C 28.234375 -3.59375 28.472656 -5.859375 28.597656 -8.0625 C 28.722656 -10.300781 28.785156 -12.292969 28.785156 -14.039062 C 28.785156 -14.761719 28.753906 -15.777344 28.691406 -17.078125 C 28.628906 -18.371094 28.515625 -19.792969 28.351562 -21.339844 C 28.191406 -22.859375 27.957031 -24.390625 27.652344 -25.933594 C 27.367188 -27.378906 26.992188 -28.691406 26.523438 -29.867188 C 26.128906 -30.863281 25.675781 -31.640625 25.160156 -32.195312 C 25 -32.367188 24.835938 -32.457031 24.664062 -32.457031 C 24.574219 -32.457031 24.515625 -32.449219 24.488281 -32.441406 C 24.53125 -32.457031 24.570312 -32.480469 24.613281 -32.519531 C 24.425781 -32.351562 24.261719 -32.109375 24.125 -31.785156 C 23.902344 -31.265625 23.734375 -30.667969 23.625 -29.996094 C 23.5 -29.214844 23.425781 -28.421875 23.40625 -27.621094 C 23.386719 -26.699219 23.375 -25.820312 23.375 -24.984375 L 23.375 -22.796875 C 23.375 -21.847656 23.328125 -20.84375 23.234375 -19.785156 C 23.125 -18.53125 22.855469 -17.351562 22.429688 -16.246094 C 21.917969 -14.910156 21.125 -13.792969 20.050781 -12.894531 C 18.808594 -11.855469 17.257812 -11.332031 15.390625 -11.332031 C 13.800781 -11.332031 12.484375 -11.667969 11.4375 -12.335938 C 10.378906 -13.011719 9.597656 -13.925781 9.089844 -15.070312 C 8.679688 -15.992188 8.441406 -17.003906 8.375 -18.105469 C 8.332031 -18.898438 8.308594 -19.6875 8.308594 -20.476562 C 8.308594 -21.015625 8.316406 -21.78125 8.339844 -22.769531 C 8.359375 -23.671875 8.351562 -24.675781 8.308594 -25.773438 C 8.269531 -26.839844 8.179688 -27.917969 8.042969 -29.007812 C 7.917969 -29.992188 7.722656 -30.886719 7.460938 -31.691406 C 7.25 -32.339844 6.996094 -32.851562 6.699219 -33.234375 C 6.714844 -33.21875 6.75 -33.195312 6.804688 -33.164062 C 6.878906 -33.125 6.921875 -33.109375 6.933594 -33.105469 C 6.835938 -33.113281 6.773438 -33.109375 6.742188 -33.097656 C 6.707031 -33.082031 6.648438 -33.023438 6.574219 -32.925781 C 6.035156 -32.222656 5.605469 -31.324219 5.285156 -30.230469 C 4.902344 -28.929688 4.625 -27.597656 4.453125 -26.238281 C 4.269531 -24.796875 4.15625 -23.644531 4.117188 -22.785156 L 4.117188 -22.75 L 4.113281 -22.710938 C 4.039062 -21.597656 4.039062 -20.367188 4.117188 -19.015625 C 4.195312 -17.65625 4.363281 -16.269531 4.621094 -14.84375 C 4.863281 -13.496094 5.230469 -12.191406 5.714844 -10.9375 C 6.167969 -9.777344 6.730469 -8.753906 7.410156 -7.875 C 8.011719 -7.089844 8.738281 -6.460938 9.59375 -5.980469 C 10.347656 -5.554688 11.273438 -5.34375 12.363281 -5.34375 C 13.769531 -5.34375 14.925781 -5.722656 15.835938 -6.472656 C 17.082031 -7.5 18.367188 -9.023438 19.703125 -11.039062 L 26 -20.582031 L 25.367188 -9.164062 C 25.324219 -8.378906 25.257812 -7.355469 25.171875 -6.097656 C 25.082031 -4.785156 24.933594 -3.386719 24.730469 -1.902344 C 24.523438 -0.382812 24.238281 1.144531 23.871094 2.683594 C 23.476562 4.328125 22.957031 5.839844 22.308594 7.214844 C 21.578125 8.757812 20.667969 10.03125 19.574219 11.035156 C 18.191406 12.308594 16.558594 12.945312 14.683594 12.945312 C 13.757812 12.945312 12.875 12.808594 12.035156 12.539062 C 11.441406 12.347656 10.835938 12.136719 10.222656 11.902344 L 10.183594 11.886719 L 10.144531 11.867188 C 9.722656 11.695312 9.316406 11.546875 8.921875 11.425781 C 8.71875 11.363281 8.515625 11.332031 8.308594 11.332031 C 8.277344 11.332031 8.25 11.339844 8.222656 11.351562 C 8.078125 11.417969 7.941406 11.507812 7.808594 11.625 C 7.746094 11.679688 7.695312 11.742188 7.660156 11.816406 L 7.652344 11.824219 C 7.660156 11.792969 7.664062 11.757812 7.664062 11.71875 C 7.664062 12.03125 7.785156 12.316406 8.03125 12.582031 C 8.582031 13.175781 9.277344 13.691406 10.117188 14.128906 C 11.058594 14.617188 12.0625 14.992188 13.132812 15.253906 C 14.203125 15.515625 15.125 15.648438 15.90625 15.648438 Z M 15.90625 15.648438 "/></g></g></g><g fill="#ffffff" fill-opacity="1"><g transform="translate(106.527345, 64.606212)"><g><path d="M 32.90625 -43.984375 C 32.90625 -42.085938 32.203125 -40.398438 30.800781 -38.921875 C 29.75 -37.820312 28.5 -36.859375 27.050781 -36.042969 C 25.707031 -35.285156 24.324219 -34.660156 22.902344 -34.171875 C 21.535156 -33.699219 20.382812 -33.363281 19.441406 -33.164062 L 18.804688 -36.191406 L 21.878906 -35.871094 C 21.539062 -32.613281 21.273438 -29.363281 21.085938 -26.125 C 20.894531 -22.902344 20.800781 -19.667969 20.800781 -16.421875 C 20.800781 -14.710938 20.84375 -13.023438 20.925781 -11.359375 C 21.011719 -9.589844 21.058594 -7.820312 21.058594 -6.054688 C 21.058594 -5.113281 20.96875 -4.101562 20.792969 -3.011719 C 20.597656 -1.824219 20.265625 -0.699219 19.789062 0.359375 C 19.238281 1.59375 18.46875 2.636719 17.480469 3.496094 C 16.253906 4.558594 14.785156 5.085938 13.074219 5.085938 C 11.144531 5.085938 9.546875 4.5 8.289062 3.320312 C 7.289062 2.386719 6.523438 1.257812 5.988281 -0.0625 C 5.523438 -1.210938 5.210938 -2.425781 5.046875 -3.699219 C 4.902344 -4.835938 4.828125 -5.878906 4.828125 -6.824219 L 7.921875 -6.824219 L 4.832031 -6.722656 C 4.746094 -9.316406 4.679688 -11.921875 4.636719 -14.535156 C 4.59375 -17.148438 4.570312 -19.773438 4.570312 -22.410156 C 4.570312 -24.609375 4.582031 -26.765625 4.605469 -28.882812 C 4.625 -30.972656 4.636719 -33.109375 4.636719 -35.289062 L 7.726562 -35.289062 L 8.164062 -32.230469 C 7.488281 -32.132812 6.800781 -32.058594 6.105469 -32.011719 C 5.410156 -31.964844 4.707031 -31.941406 3.992188 -31.941406 C 3.347656 -31.941406 2.539062 -32.003906 1.570312 -32.125 C 0.507812 -32.261719 -0.515625 -32.507812 -1.5 -32.863281 C -2.644531 -33.277344 -3.640625 -33.863281 -4.496094 -34.617188 C -5.75 -35.726562 -6.375 -37.128906 -6.375 -38.832031 C -6.375 -41 -5.554688 -42.871094 -3.910156 -44.445312 C -2.644531 -45.65625 -1.070312 -46.6875 0.820312 -47.539062 C 2.546875 -48.320312 4.453125 -48.980469 6.535156 -49.519531 C 8.550781 -50.039062 10.542969 -50.449219 12.519531 -50.742188 C 14.453125 -51.03125 16.238281 -51.242188 17.875 -51.378906 C 19.527344 -51.515625 20.824219 -51.582031 21.765625 -51.582031 C 22.652344 -51.582031 23.59375 -51.546875 24.589844 -51.476562 C 25.804688 -51.394531 26.960938 -51.148438 28.050781 -50.746094 C 29.347656 -50.269531 30.4375 -49.539062 31.316406 -48.554688 C 32.375 -47.367188 32.90625 -45.84375 32.90625 -43.984375 Z M 26.722656 -43.984375 C 26.722656 -44.195312 26.707031 -44.359375 26.671875 -44.472656 C 26.667969 -44.480469 26.664062 -44.488281 26.664062 -44.496094 C 26.664062 -44.496094 26.664062 -44.492188 26.664062 -44.488281 C 26.675781 -44.472656 26.6875 -44.453125 26.703125 -44.433594 C 26.511719 -44.652344 26.246094 -44.824219 25.914062 -44.945312 C 25.375 -45.144531 24.789062 -45.265625 24.160156 -45.308594 C 23.308594 -45.371094 22.511719 -45.398438 21.765625 -45.398438 C 20.992188 -45.398438 19.863281 -45.339844 18.378906 -45.214844 C 16.882812 -45.09375 15.234375 -44.898438 13.433594 -44.628906 C 11.671875 -44.363281 9.886719 -44 8.082031 -43.535156 C 6.34375 -43.085938 4.773438 -42.542969 3.367188 -41.90625 C 2.121094 -41.34375 1.121094 -40.699219 0.367188 -39.980469 C -0.0078125 -39.621094 -0.191406 -39.238281 -0.191406 -38.832031 C -0.191406 -38.988281 -0.261719 -39.125 -0.398438 -39.246094 C -0.136719 -39.015625 0.195312 -38.824219 0.597656 -38.679688 C 1.160156 -38.476562 1.746094 -38.335938 2.355469 -38.257812 C 3.0625 -38.167969 3.609375 -38.121094 3.992188 -38.121094 C 4.566406 -38.121094 5.128906 -38.140625 5.679688 -38.179688 C 6.226562 -38.21875 6.765625 -38.273438 7.289062 -38.347656 L 10.820312 -38.851562 L 10.820312 -35.289062 C 10.820312 -33.089844 10.808594 -30.933594 10.785156 -28.816406 C 10.765625 -26.726562 10.753906 -24.589844 10.753906 -22.410156 C 10.753906 -19.808594 10.777344 -17.21875 10.820312 -14.636719 C 10.859375 -12.058594 10.925781 -9.488281 11.011719 -6.929688 L 11.011719 -6.824219 C 11.011719 -6.140625 11.066406 -5.359375 11.179688 -4.480469 C 11.273438 -3.738281 11.457031 -3.039062 11.71875 -2.382812 C 11.914062 -1.902344 12.179688 -1.507812 12.511719 -1.195312 C 12.582031 -1.128906 12.769531 -1.09375 13.074219 -1.09375 C 13.25 -1.09375 13.367188 -1.121094 13.429688 -1.175781 C 13.730469 -1.4375 13.96875 -1.765625 14.148438 -2.164062 C 14.402344 -2.734375 14.582031 -3.347656 14.691406 -4.007812 C 14.8125 -4.765625 14.875 -5.445312 14.875 -6.054688 C 14.875 -7.71875 14.832031 -9.386719 14.75 -11.050781 C 14.660156 -12.820312 14.617188 -14.609375 14.617188 -16.421875 C 14.617188 -19.789062 14.714844 -23.144531 14.914062 -26.488281 C 15.109375 -29.816406 15.382812 -33.160156 15.730469 -36.511719 L 15.960938 -38.75 L 18.167969 -39.214844 C 18.855469 -39.359375 19.761719 -39.628906 20.886719 -40.015625 C 21.957031 -40.382812 22.996094 -40.855469 24.015625 -41.425781 C 24.925781 -41.941406 25.695312 -42.527344 26.320312 -43.183594 C 26.589844 -43.464844 26.722656 -43.734375 26.722656 -43.984375 Z M 26.722656 -43.984375 "/></g></g></g><g fill="#ffffff" fill-opacity="1"><g transform="translate(134.951926, 64.606212)"><g><path d="M 14.167969 4.957031 C 11.320312 4.957031 8.8125 4.1875 6.644531 2.648438 C 4.675781 1.25 3.023438 -0.53125 1.6875 -2.6875 C 0.402344 -4.761719 -0.558594 -7.058594 -1.195312 -9.578125 C -1.816406 -12.039062 -2.125 -14.46875 -2.125 -16.871094 C -2.125 -19.382812 -1.820312 -21.960938 -1.210938 -24.617188 C -0.582031 -27.34375 0.390625 -29.84375 1.707031 -32.109375 C 3.09375 -34.496094 4.871094 -36.453125 7.046875 -37.980469 C 9.382812 -39.621094 12.121094 -40.441406 15.261719 -40.441406 C 18.367188 -40.441406 21.046875 -39.570312 23.300781 -37.832031 C 25.351562 -36.25 26.996094 -34.285156 28.234375 -31.933594 C 29.410156 -29.703125 30.242188 -27.273438 30.730469 -24.648438 C 31.207031 -22.078125 31.371094 -19.636719 31.226562 -17.324219 C 31.085938 -14.867188 30.703125 -12.382812 30.078125 -9.875 C 29.421875 -7.257812 28.457031 -4.890625 27.179688 -2.78125 C 25.828125 -0.546875 24.109375 1.277344 22.015625 2.691406 C 19.773438 4.203125 17.160156 4.957031 14.167969 4.957031 Z M 14.167969 -1.222656 C 15.898438 -1.222656 17.359375 -1.625 18.554688 -2.433594 C 19.898438 -3.339844 21.007812 -4.519531 21.890625 -5.976562 C 22.84375 -7.558594 23.574219 -9.359375 24.078125 -11.375 C 24.613281 -13.503906 24.9375 -15.617188 25.054688 -17.707031 C 25.167969 -19.515625 25.035156 -21.453125 24.652344 -23.519531 C 24.277344 -25.53125 23.652344 -27.375 22.765625 -29.050781 C 21.945312 -30.605469 20.863281 -31.902344 19.523438 -32.9375 C 18.382812 -33.820312 16.964844 -34.257812 15.261719 -34.257812 C 13.421875 -34.257812 11.867188 -33.8125 10.597656 -32.921875 C 9.167969 -31.914062 7.984375 -30.609375 7.050781 -29.003906 C 6.050781 -27.277344 5.304688 -25.351562 4.816406 -23.230469 C 4.308594 -21.03125 4.058594 -18.914062 4.058594 -16.871094 C 4.058594 -14.980469 4.304688 -13.054688 4.800781 -11.09375 C 5.28125 -9.191406 5.996094 -7.472656 6.941406 -5.941406 C 7.839844 -4.492188 8.933594 -3.308594 10.226562 -2.390625 C 11.320312 -1.613281 12.636719 -1.222656 14.167969 -1.222656 Z M 14.8125 -24.148438 C 15.0625 -24.148438 15.292969 -24.210938 15.5 -24.335938 C 15.558594 -24.371094 15.605469 -24.40625 15.640625 -24.441406 L 15.644531 -24.445312 C 15.636719 -24.433594 15.625 -24.421875 15.613281 -24.40625 C 15.308594 -23.976562 15.042969 -23.421875 14.820312 -22.738281 C 14.550781 -21.910156 14.339844 -21.027344 14.195312 -20.09375 C 14.046875 -19.160156 13.972656 -18.363281 13.972656 -17.710938 C 13.972656 -16.84375 14.058594 -15.890625 14.226562 -14.851562 C 14.390625 -13.820312 14.617188 -12.882812 14.902344 -12.039062 C 15.144531 -11.335938 15.414062 -10.78125 15.714844 -10.375 C 15.726562 -10.359375 15.734375 -10.347656 15.742188 -10.339844 C 15.742188 -10.339844 15.738281 -10.34375 15.734375 -10.347656 C 15.699219 -10.382812 15.648438 -10.417969 15.589844 -10.453125 C 15.394531 -10.566406 15.175781 -10.625 14.941406 -10.625 C 14.757812 -10.625 14.582031 -10.582031 14.417969 -10.488281 C 14.359375 -10.457031 14.308594 -10.421875 14.265625 -10.386719 L 14.257812 -10.382812 C 14.523438 -10.730469 14.753906 -11.21875 14.945312 -11.847656 C 15.1875 -12.648438 15.367188 -13.546875 15.472656 -14.535156 C 15.589844 -15.605469 15.648438 -16.597656 15.648438 -17.515625 C 15.648438 -18.304688 15.574219 -19.191406 15.425781 -20.175781 C 15.277344 -21.144531 15.070312 -22.042969 14.800781 -22.867188 C 14.589844 -23.519531 14.34375 -24.027344 14.066406 -24.394531 C 14.054688 -24.40625 14.046875 -24.414062 14.042969 -24.421875 C 14.042969 -24.417969 14.046875 -24.414062 14.054688 -24.410156 C 14.089844 -24.375 14.140625 -24.339844 14.199219 -24.308594 C 14.386719 -24.203125 14.589844 -24.148438 14.8125 -24.148438 Z M 14.8125 -30.332031 C 15.675781 -30.332031 16.488281 -30.117188 17.242188 -29.6875 C 17.894531 -29.320312 18.46875 -28.808594 18.972656 -28.15625 C 19.679688 -27.230469 20.25 -26.109375 20.679688 -24.785156 C 21.054688 -23.636719 21.339844 -22.40625 21.539062 -21.101562 C 21.734375 -19.808594 21.832031 -18.613281 21.832031 -17.515625 C 21.832031 -16.375 21.761719 -15.15625 21.621094 -13.863281 C 21.46875 -12.492188 21.214844 -11.21875 20.859375 -10.046875 C 20.449219 -8.703125 19.886719 -7.558594 19.164062 -6.621094 C 18.652344 -5.953125 18.054688 -5.433594 17.378906 -5.0625 C 16.621094 -4.648438 15.808594 -4.441406 14.941406 -4.441406 C 14.058594 -4.441406 13.234375 -4.667969 12.46875 -5.117188 C 11.820312 -5.496094 11.25 -6.019531 10.75 -6.691406 C 10.066406 -7.613281 9.5 -8.734375 9.050781 -10.046875 C 8.652344 -11.222656 8.339844 -12.496094 8.121094 -13.871094 C 7.902344 -15.234375 7.792969 -16.515625 7.792969 -17.710938 C 7.792969 -18.683594 7.890625 -19.800781 8.085938 -21.054688 C 8.285156 -22.3125 8.570312 -23.511719 8.941406 -24.65625 C 9.363281 -25.949219 9.914062 -27.066406 10.59375 -28.011719 C 11.089844 -28.699219 11.65625 -29.238281 12.304688 -29.628906 C 13.078125 -30.097656 13.914062 -30.332031 14.8125 -30.332031 Z M 14.8125 -30.332031 "/></g></g></g><g fill="#ffffff" fill-opacity="1"><g transform="translate(168.334778, 64.606212)"><g><path d="M 34.515625 -19.191406 C 34.515625 -17.117188 34.296875 -14.863281 33.855469 -12.425781 C 33.394531 -9.882812 32.617188 -7.511719 31.519531 -5.316406 C 30.355469 -2.992188 28.820312 -1.046875 26.917969 0.519531 C 24.777344 2.277344 22.160156 3.15625 19.0625 3.15625 C 18.324219 3.15625 17.566406 3.105469 16.785156 3 C 15.914062 2.882812 15.078125 2.679688 14.285156 2.382812 C 13.410156 2.058594 12.613281 1.617188 11.890625 1.0625 C 10.996094 0.371094 10.3125 -0.523438 9.84375 -1.617188 L 12.6875 -2.832031 L 15.769531 -2.640625 L 15.191406 6.632812 C 15.152344 7.550781 15.121094 8.683594 15.101562 10.03125 C 15.074219 11.648438 14.871094 13.199219 14.488281 14.683594 C 14.046875 16.390625 13.296875 17.863281 12.234375 19.105469 C 10.867188 20.707031 9 21.507812 6.632812 21.507812 C 5.648438 21.507812 4.734375 21.253906 3.898438 20.742188 C 3.164062 20.296875 2.53125 19.675781 2 18.875 C 1.242188 17.742188 0.660156 16.359375 0.253906 14.722656 C -0.101562 13.296875 -0.375 11.722656 -0.5625 9.992188 C -0.742188 8.324219 -0.855469 6.71875 -0.902344 5.179688 C -0.945312 3.6875 -0.964844 2.328125 -0.964844 1.09375 L -0.964844 -1.546875 C -0.964844 -4.40625 -0.988281 -7.257812 -1.03125 -10.097656 C -1.074219 -12.964844 -1.09375 -15.847656 -1.09375 -18.738281 L -1.09375 -21.152344 C -1.09375 -22.316406 -1.050781 -23.578125 -0.960938 -24.933594 C -0.867188 -26.296875 -0.722656 -27.703125 -0.515625 -29.152344 C -0.296875 -30.71875 0.0390625 -32.160156 0.484375 -33.480469 C 1 -34.992188 1.683594 -36.25 2.535156 -37.257812 C 3.753906 -38.691406 5.269531 -39.410156 7.082031 -39.410156 C 8.300781 -39.410156 9.40625 -39.058594 10.394531 -38.351562 C 11.160156 -37.804688 11.8125 -37.121094 12.34375 -36.300781 C 12.785156 -35.625 13.152344 -34.90625 13.445312 -34.144531 C 13.699219 -33.488281 13.902344 -32.875 14.058594 -32.304688 L 11.078125 -31.488281 L 8.761719 -33.539062 C 10.390625 -35.378906 12.277344 -36.773438 14.425781 -37.726562 C 16.5625 -38.679688 18.839844 -39.152344 21.25 -39.152344 C 24.09375 -39.152344 26.460938 -38.316406 28.355469 -36.636719 C 30.003906 -35.179688 31.296875 -33.382812 32.230469 -31.246094 C 33.089844 -29.285156 33.6875 -27.191406 34.03125 -24.972656 C 34.355469 -22.863281 34.515625 -20.9375 34.515625 -19.191406 Z M 28.335938 -19.191406 C 28.335938 -20.621094 28.195312 -22.234375 27.917969 -24.03125 C 27.660156 -25.71875 27.207031 -27.300781 26.566406 -28.769531 C 25.996094 -30.070312 25.226562 -31.152344 24.257812 -32.007812 C 23.53125 -32.648438 22.53125 -32.972656 21.25 -32.972656 C 19.714844 -32.972656 18.273438 -32.671875 16.9375 -32.078125 C 15.605469 -31.488281 14.425781 -30.609375 13.390625 -29.441406 L 9.597656 -25.160156 L 8.09375 -30.675781 C 7.992188 -31.046875 7.851562 -31.464844 7.675781 -31.925781 C 7.539062 -32.28125 7.371094 -32.613281 7.167969 -32.925781 C 7.058594 -33.09375 6.933594 -33.226562 6.800781 -33.320312 C 6.886719 -33.257812 6.980469 -33.226562 7.082031 -33.226562 C 7.128906 -33.226562 7.179688 -33.242188 7.242188 -33.273438 C 7.265625 -33.285156 7.285156 -33.296875 7.296875 -33.304688 C 7.289062 -33.296875 7.273438 -33.28125 7.25 -33.257812 C 6.902344 -32.847656 6.601562 -32.261719 6.339844 -31.492188 C 6.015625 -30.539062 5.769531 -29.472656 5.605469 -28.289062 C 5.421875 -26.992188 5.289062 -25.734375 5.210938 -24.523438 C 5.128906 -23.304688 5.085938 -22.179688 5.085938 -21.152344 L 5.085938 -18.738281 C 5.085938 -15.878906 5.109375 -13.027344 5.152344 -10.1875 C 5.195312 -7.320312 5.214844 -4.4375 5.214844 -1.546875 L 5.214844 1.09375 C 5.214844 2.265625 5.238281 3.566406 5.28125 4.996094 C 5.320312 6.375 5.421875 7.820312 5.585938 9.328125 C 5.742188 10.773438 5.964844 12.074219 6.25 13.222656 C 6.488281 14.164062 6.785156 14.90625 7.144531 15.445312 C 7.171875 15.488281 7.195312 15.519531 7.210938 15.535156 C 7.1875 15.511719 7.15625 15.488281 7.113281 15.464844 C 6.964844 15.371094 6.804688 15.328125 6.632812 15.328125 C 7.097656 15.328125 7.398438 15.246094 7.535156 15.089844 C 7.976562 14.570312 8.300781 13.921875 8.503906 13.136719 C 8.761719 12.128906 8.902344 11.0625 8.917969 9.933594 C 8.941406 8.53125 8.976562 7.300781 9.019531 6.246094 L 9.601562 -3.027344 L 15.527344 -4.050781 C 15.574219 -3.941406 15.621094 -3.867188 15.671875 -3.832031 C 15.894531 -3.65625 16.148438 -3.519531 16.433594 -3.414062 C 16.796875 -3.277344 17.1875 -3.183594 17.601562 -3.128906 C 18.109375 -3.0625 18.597656 -3.027344 19.0625 -3.027344 C 20.683594 -3.027344 21.996094 -3.4375 22.992188 -4.253906 C 24.21875 -5.265625 25.21875 -6.539062 25.988281 -8.078125 C 26.820312 -9.746094 27.417969 -11.5625 27.773438 -13.527344 C 28.148438 -15.597656 28.335938 -17.484375 28.335938 -19.191406 Z M 19.125 -19.707031 C 19.125 -20.183594 19.085938 -20.675781 19.003906 -21.175781 C 18.945312 -21.546875 18.839844 -21.886719 18.691406 -22.195312 C 18.644531 -22.296875 18.578125 -22.375 18.5 -22.429688 C 18.53125 -22.410156 18.554688 -22.394531 18.574219 -22.390625 C 18.527344 -22.402344 18.453125 -22.410156 18.351562 -22.410156 C 17.882812 -22.410156 17.316406 -22.21875 16.660156 -21.835938 C 15.945312 -21.414062 15.441406 -20.980469 15.148438 -20.53125 C 15.246094 -20.683594 15.296875 -20.789062 15.3125 -20.84375 C 15.289062 -20.738281 15.269531 -20.582031 15.257812 -20.371094 C 15.21875 -19.65625 15.199219 -19.132812 15.199219 -18.804688 C 15.199219 -18.546875 15.207031 -18.195312 15.226562 -17.746094 C 15.246094 -17.292969 15.277344 -16.832031 15.316406 -16.355469 C 15.355469 -15.894531 15.402344 -15.453125 15.460938 -15.035156 C 15.472656 -14.925781 15.488281 -14.839844 15.503906 -14.78125 C 15.5 -14.804688 15.480469 -14.84375 15.449219 -14.90625 L 15.550781 -14.710938 L 15.617188 -14.5 C 15.570312 -14.648438 15.503906 -14.777344 15.421875 -14.882812 C 15.398438 -14.90625 15.378906 -14.929688 15.363281 -14.945312 C 15.363281 -14.945312 15.367188 -14.941406 15.378906 -14.933594 C 15.660156 -14.722656 15.972656 -14.53125 16.324219 -14.355469 C 16.625 -14.203125 16.933594 -14.089844 17.238281 -14.019531 C 17.539062 -13.945312 17.757812 -13.910156 17.902344 -13.910156 L 17.910156 -13.90625 C 17.878906 -13.902344 17.84375 -13.890625 17.808594 -13.875 C 17.75 -13.84375 17.710938 -13.820312 17.691406 -13.796875 C 18.019531 -14.199219 18.28125 -14.699219 18.484375 -15.292969 C 18.734375 -16.019531 18.898438 -16.773438 18.980469 -17.554688 C 19.078125 -18.453125 19.125 -19.171875 19.125 -19.707031 Z M 25.308594 -19.707031 C 25.308594 -18.953125 25.25 -18.015625 25.128906 -16.898438 C 24.996094 -15.660156 24.734375 -14.460938 24.335938 -13.296875 C 23.898438 -12.003906 23.28125 -10.871094 22.492188 -9.898438 C 21.914062 -9.191406 21.230469 -8.652344 20.441406 -8.277344 C 19.660156 -7.910156 18.8125 -7.726562 17.902344 -7.726562 C 17.273438 -7.726562 16.570312 -7.820312 15.796875 -8.007812 C 15.03125 -8.191406 14.285156 -8.464844 13.558594 -8.828125 C 12.875 -9.167969 12.246094 -9.554688 11.667969 -9.988281 C 10.722656 -10.695312 10.085938 -11.546875 9.753906 -12.546875 L 12.6875 -13.523438 L 9.921875 -12.140625 C 9.640625 -12.703125 9.445312 -13.390625 9.332031 -14.199219 C 9.261719 -14.726562 9.203125 -15.273438 9.15625 -15.84375 C 9.109375 -16.398438 9.074219 -16.945312 9.050781 -17.476562 C 9.027344 -18.015625 9.015625 -18.457031 9.015625 -18.804688 C 9.015625 -19.246094 9.039062 -19.882812 9.085938 -20.714844 C 9.15625 -22.015625 9.449219 -23.078125 9.964844 -23.902344 C 10.789062 -25.167969 11.980469 -26.257812 13.539062 -27.171875 C 15.160156 -28.117188 16.765625 -28.59375 18.351562 -28.59375 C 19.78125 -28.59375 21.019531 -28.21875 22.070312 -27.476562 C 23.019531 -26.804688 23.75 -25.9375 24.261719 -24.878906 C 24.671875 -24.027344 24.953125 -23.121094 25.109375 -22.160156 C 25.242188 -21.332031 25.308594 -20.515625 25.308594 -19.707031 Z M 25.308594 -19.707031 "/></g></g></g><g fill="#ffffff" fill-opacity="1"><g transform="translate(205.645611, 64.606212)"><g><path d="M 15.648438 -44.949219 C 15.648438 -43.710938 15.308594 -42.59375 14.628906 -41.597656 C 14.097656 -40.820312 13.421875 -40.140625 12.605469 -39.5625 C 11.832031 -39.011719 10.992188 -38.59375 10.089844 -38.304688 C 9.179688 -38.011719 8.308594 -37.863281 7.46875 -37.863281 C 5.988281 -37.863281 4.664062 -38.253906 3.5 -39.027344 C 2.710938 -39.554688 2.113281 -40.238281 1.710938 -41.074219 C 1.34375 -41.832031 1.160156 -42.671875 1.160156 -43.597656 C 1.160156 -44.851562 1.488281 -45.984375 2.144531 -46.992188 C 2.691406 -47.832031 3.371094 -48.527344 4.183594 -49.082031 C 4.929688 -49.589844 5.765625 -49.976562 6.683594 -50.238281 C 7.5625 -50.492188 8.425781 -50.617188 9.273438 -50.617188 C 10.628906 -50.617188 11.886719 -50.289062 13.042969 -49.640625 C 13.921875 -49.144531 14.59375 -48.453125 15.046875 -47.574219 C 15.449219 -46.796875 15.648438 -45.921875 15.648438 -44.949219 Z M 9.464844 -44.949219 L 9.46875 -44.960938 C 9.484375 -44.890625 9.511719 -44.816406 9.554688 -44.738281 C 9.664062 -44.523438 9.816406 -44.359375 10.011719 -44.25 C 9.796875 -44.371094 9.550781 -44.433594 9.273438 -44.433594 C 9.003906 -44.433594 8.707031 -44.386719 8.382812 -44.292969 C 8.101562 -44.214844 7.863281 -44.105469 7.664062 -43.972656 C 7.535156 -43.882812 7.417969 -43.761719 7.324219 -43.613281 C 7.332031 -43.628906 7.339844 -43.648438 7.34375 -43.664062 C 7.34375 -43.65625 7.339844 -43.632812 7.339844 -43.597656 L 7.339844 -43.585938 C 7.328125 -43.640625 7.304688 -43.703125 7.273438 -43.765625 C 7.191406 -43.941406 7.074219 -44.074219 6.929688 -44.171875 C 7.054688 -44.089844 7.234375 -44.046875 7.46875 -44.046875 C 7.660156 -44.046875 7.90625 -44.09375 8.199219 -44.1875 C 8.496094 -44.285156 8.773438 -44.425781 9.03125 -44.605469 C 9.246094 -44.757812 9.40625 -44.914062 9.519531 -45.082031 C 9.484375 -45.027344 9.464844 -44.984375 9.464844 -44.949219 Z M 16.164062 -23.054688 L 16.164062 -21.152344 C 16.164062 -20.414062 16.140625 -19.707031 16.089844 -19.035156 C 16.054688 -18.390625 16.035156 -17.488281 16.035156 -16.324219 C 16.035156 -15.039062 15.988281 -13.65625 15.902344 -12.175781 C 15.808594 -10.6875 15.664062 -9.175781 15.460938 -7.644531 C 15.238281 -5.96875 14.875 -4.425781 14.375 -3.015625 C 13.800781 -1.410156 13.007812 -0.0703125 12.003906 0.992188 C 10.71875 2.355469 9.121094 3.078125 7.207031 3.152344 C 6.308594 3.199219 5.457031 3.035156 4.644531 2.652344 C 3.875 2.292969 3.199219 1.757812 2.625 1.046875 C 1.828125 0.0703125 1.191406 -1.144531 0.707031 -2.597656 C 0.277344 -3.882812 -0.0351562 -5.300781 -0.234375 -6.855469 C -0.414062 -8.265625 -0.546875 -9.636719 -0.636719 -10.964844 C -0.726562 -12.300781 -0.773438 -13.539062 -0.773438 -14.683594 L -0.773438 -19.996094 C -0.773438 -21.320312 -0.726562 -22.746094 -0.640625 -24.265625 C -0.546875 -25.824219 -0.375 -27.40625 -0.125 -29.007812 C 0.144531 -30.707031 0.535156 -32.269531 1.054688 -33.703125 C 1.648438 -35.347656 2.460938 -36.714844 3.484375 -37.796875 C 4.824219 -39.214844 6.496094 -39.925781 8.5 -39.925781 C 9.699219 -39.925781 10.773438 -39.609375 11.730469 -38.980469 C 12.617188 -38.398438 13.335938 -37.574219 13.886719 -36.519531 C 14.621094 -35.097656 15.171875 -33.464844 15.527344 -31.628906 C 15.859375 -29.917969 16.050781 -28.214844 16.097656 -26.523438 C 16.140625 -24.96875 16.164062 -23.8125 16.164062 -23.054688 Z M 9.980469 -23.054688 C 9.980469 -23.753906 9.960938 -24.851562 9.917969 -26.347656 C 9.878906 -27.703125 9.726562 -29.070312 9.457031 -30.449219 C 9.214844 -31.703125 8.859375 -32.777344 8.394531 -33.671875 C 8.355469 -33.753906 8.316406 -33.8125 8.285156 -33.851562 C 8.289062 -33.847656 8.304688 -33.835938 8.328125 -33.820312 C 8.40625 -33.769531 8.460938 -33.742188 8.5 -33.742188 C 8.273438 -33.742188 8.097656 -33.679688 7.980469 -33.554688 C 7.542969 -33.089844 7.171875 -32.4375 6.867188 -31.597656 C 6.484375 -30.539062 6.1875 -29.355469 5.984375 -28.046875 C 5.761719 -26.644531 5.613281 -25.261719 5.53125 -23.902344 C 5.449219 -22.503906 5.410156 -21.199219 5.410156 -19.996094 L 5.410156 -14.683594 C 5.410156 -13.679688 5.449219 -12.578125 5.53125 -11.382812 C 5.613281 -10.175781 5.734375 -8.925781 5.898438 -7.632812 C 6.046875 -6.480469 6.269531 -5.453125 6.570312 -4.550781 C 6.816406 -3.8125 7.101562 -3.246094 7.421875 -2.851562 C 7.402344 -2.875 7.351562 -2.90625 7.269531 -2.945312 C 7.144531 -3.003906 7.042969 -3.027344 6.960938 -3.023438 C 7.191406 -3.035156 7.375 -3.109375 7.507812 -3.246094 C 7.917969 -3.683594 8.265625 -4.300781 8.550781 -5.097656 C 8.90625 -6.09375 9.167969 -7.210938 9.332031 -8.457031 C 9.515625 -9.84375 9.648438 -11.207031 9.730469 -12.550781 C 9.8125 -13.90625 9.851562 -15.164062 9.851562 -16.324219 C 9.851562 -17.609375 9.875 -18.660156 9.925781 -19.476562 C 9.960938 -20.003906 9.980469 -20.5625 9.980469 -21.152344 Z M 9.980469 -23.054688 "/></g></g></g><g fill="#ffffff" fill-opacity="1"><g transform="translate(225.248344, 64.606212)"><g><path d="M 32.390625 -9.078125 C 32.390625 -8.253906 32.359375 -7.191406 32.289062 -5.894531 C 32.214844 -4.445312 32.003906 -3.03125 31.652344 -1.652344 C 31.25 -0.0742188 30.605469 1.3125 29.710938 2.5 C 29.085938 3.332031 28.320312 3.96875 27.410156 4.402344 C 26.539062 4.816406 25.582031 5.023438 24.535156 5.023438 C 21.980469 5.023438 19.964844 4.136719 18.488281 2.367188 C 17.132812 0.738281 16.488281 -1.238281 16.550781 -3.5625 L 19.640625 -3.476562 L 21.675781 -1.152344 C 20.035156 0.285156 18.179688 1.414062 16.109375 2.230469 C 14.003906 3.0625 11.855469 3.476562 9.660156 3.476562 C 7.894531 3.476562 6.226562 3.054688 4.652344 2.207031 C 3.226562 1.4375 1.964844 0.453125 0.867188 -0.753906 C -0.21875 -1.949219 -1.085938 -3.292969 -1.738281 -4.785156 C -2.425781 -6.359375 -2.769531 -7.941406 -2.769531 -9.53125 C -2.769531 -12.328125 -1.902344 -14.785156 -0.167969 -16.898438 C 1.328125 -18.726562 3.15625 -20.277344 5.3125 -21.558594 C 7.371094 -22.777344 9.554688 -23.746094 11.871094 -24.460938 C 14.117188 -25.15625 16.144531 -25.625 17.949219 -25.859375 L 18.351562 -22.796875 L 15.261719 -22.796875 C 15.261719 -23.140625 15.28125 -23.460938 15.316406 -23.757812 C 15.324219 -23.804688 15.328125 -23.867188 15.328125 -23.957031 C 15.328125 -24.5 15.222656 -24.886719 15.019531 -25.113281 C 14.902344 -25.242188 14.640625 -25.308594 14.230469 -25.308594 C 13.621094 -25.308594 13.136719 -25.222656 12.78125 -25.054688 C 12.140625 -24.753906 11.535156 -24.414062 10.96875 -24.042969 C 10.203125 -23.539062 9.433594 -23.085938 8.664062 -22.675781 C 7.523438 -22.070312 6.265625 -21.765625 4.894531 -21.765625 C 3.15625 -21.765625 1.660156 -22.332031 0.40625 -23.464844 C -0.9375 -24.679688 -1.609375 -26.214844 -1.609375 -28.078125 C -1.609375 -30.160156 -0.996094 -32.050781 0.230469 -33.75 C 1.304688 -35.234375 2.644531 -36.480469 4.25 -37.488281 C 5.75 -38.429688 7.371094 -39.164062 9.113281 -39.695312 C 10.886719 -40.234375 12.550781 -40.503906 14.101562 -40.503906 C 15.507812 -40.503906 16.90625 -40.335938 18.304688 -40 C 19.742188 -39.65625 21.101562 -39.121094 22.378906 -38.402344 C 23.65625 -37.683594 24.8125 -36.804688 25.851562 -35.769531 C 26.949219 -34.671875 27.832031 -33.398438 28.5 -31.949219 C 29.34375 -30.21875 30.027344 -28.363281 30.550781 -26.390625 C 31.054688 -24.484375 31.445312 -22.539062 31.71875 -20.546875 C 31.988281 -18.585938 32.167969 -16.625 32.257812 -14.664062 C 32.347656 -12.75 32.390625 -10.886719 32.390625 -9.078125 Z M 26.210938 -9.078125 C 26.210938 -10.792969 26.167969 -12.558594 26.082031 -14.378906 C 26.003906 -16.152344 25.839844 -17.925781 25.59375 -19.703125 C 25.355469 -21.445312 25.011719 -23.144531 24.574219 -24.804688 C 24.152344 -26.394531 23.589844 -27.910156 22.886719 -29.355469 C 22.527344 -30.140625 22.058594 -30.820312 21.480469 -31.398438 C 20.84375 -32.035156 20.132812 -32.574219 19.347656 -33.011719 C 18.566406 -33.453125 17.738281 -33.777344 16.855469 -33.992188 C 15.933594 -34.210938 15.015625 -34.324219 14.101562 -34.324219 C 13.164062 -34.324219 12.101562 -34.140625 10.914062 -33.78125 C 9.695312 -33.410156 8.570312 -32.898438 7.535156 -32.25 C 6.609375 -31.671875 5.84375 -30.964844 5.242188 -30.128906 C 4.796875 -29.511719 4.574219 -28.828125 4.574219 -28.078125 C 4.574219 -28.039062 4.574219 -28.007812 4.578125 -27.988281 C 4.578125 -27.992188 4.574219 -28 4.570312 -28.011719 C 4.5625 -28.027344 4.554688 -28.042969 4.542969 -28.058594 L 4.550781 -28.050781 C 4.628906 -27.984375 4.742188 -27.949219 4.894531 -27.949219 C 5.238281 -27.949219 5.527344 -28.011719 5.761719 -28.132812 C 6.363281 -28.453125 6.96875 -28.8125 7.578125 -29.210938 C 8.382812 -29.742188 9.238281 -30.21875 10.144531 -30.648438 C 11.332031 -31.207031 12.695312 -31.488281 14.230469 -31.488281 C 16.484375 -31.488281 18.28125 -30.738281 19.625 -29.238281 C 20.882812 -27.835938 21.507812 -26.074219 21.507812 -23.957031 C 21.507812 -23.613281 21.488281 -23.292969 21.453125 -22.992188 C 21.445312 -22.949219 21.445312 -22.882812 21.445312 -22.796875 L 21.445312 -20.085938 L 18.757812 -19.730469 C 17.296875 -19.539062 15.609375 -19.148438 13.695312 -18.554688 C 11.847656 -17.984375 10.105469 -17.210938 8.46875 -16.242188 C 6.933594 -15.332031 5.648438 -14.246094 4.613281 -12.980469 C 3.8125 -12.003906 3.414062 -10.855469 3.414062 -9.53125 C 3.414062 -8.800781 3.585938 -8.042969 3.929688 -7.257812 C 4.308594 -6.386719 4.8125 -5.605469 5.441406 -4.914062 C 6.0625 -4.230469 6.777344 -3.671875 7.582031 -3.238281 C 8.242188 -2.882812 8.933594 -2.703125 9.660156 -2.703125 C 11.070312 -2.703125 12.460938 -2.976562 13.835938 -3.519531 C 15.242188 -4.074219 16.5 -4.835938 17.605469 -5.804688 L 22.925781 -10.460938 L 22.730469 -3.390625 C 22.710938 -2.625 22.878906 -2.023438 23.238281 -1.59375 C 23.480469 -1.304688 23.910156 -1.160156 24.535156 -1.160156 C 24.648438 -1.160156 24.722656 -1.167969 24.75 -1.179688 C 24.742188 -1.175781 24.734375 -1.171875 24.730469 -1.167969 C 24.738281 -1.175781 24.75 -1.1875 24.765625 -1.210938 C 25.164062 -1.738281 25.460938 -2.394531 25.660156 -3.175781 C 25.910156 -4.160156 26.0625 -5.171875 26.117188 -6.214844 C 26.179688 -7.40625 26.210938 -8.359375 26.210938 -9.078125 Z M 15.910156 -11.003906 L 15.714844 -15.382812 L 18.804688 -15.519531 L 18.804688 -12.429688 C 18.464844 -12.429688 18.128906 -12.46875 17.796875 -12.554688 C 17.957031 -12.511719 18.121094 -12.492188 18.289062 -12.492188 C 18.066406 -12.492188 17.691406 -12.40625 17.171875 -12.234375 C 16.578125 -12.035156 16.003906 -11.757812 15.445312 -11.402344 C 14.910156 -11.058594 14.46875 -10.695312 14.121094 -10.304688 C 14.089844 -10.269531 14.0625 -10.238281 14.046875 -10.210938 L 14.050781 -10.222656 C 14.085938 -10.300781 14.101562 -10.394531 14.101562 -10.496094 C 14.101562 -10.707031 14.039062 -10.933594 13.910156 -11.179688 C 13.707031 -11.5625 13.417969 -11.847656 13.039062 -12.039062 C 13.023438 -12.046875 13.011719 -12.050781 13.003906 -12.050781 C 13.035156 -12.046875 13.078125 -12.042969 13.136719 -12.042969 C 13.628906 -12.042969 14.207031 -12.195312 14.871094 -12.5 C 15.855469 -12.953125 16.714844 -13.390625 17.449219 -13.816406 L 18.996094 -11.140625 Z M 22.085938 -11.277344 L 22.167969 -9.40625 L 20.546875 -8.464844 C 19.648438 -7.945312 18.617188 -7.417969 17.457031 -6.882812 C 15.972656 -6.199219 14.53125 -5.859375 13.136719 -5.859375 C 12.09375 -5.859375 11.136719 -6.074219 10.273438 -6.507812 C 9.464844 -6.914062 8.851562 -7.507812 8.4375 -8.300781 C 8.09375 -8.953125 7.921875 -9.6875 7.921875 -10.496094 C 7.921875 -11.925781 8.449219 -13.234375 9.511719 -14.421875 C 10.238281 -15.234375 11.105469 -15.964844 12.117188 -16.609375 C 13.105469 -17.242188 14.136719 -17.738281 15.21875 -18.097656 C 16.371094 -18.484375 17.394531 -18.675781 18.289062 -18.675781 C 18.628906 -18.675781 18.964844 -18.632812 19.296875 -18.550781 C 19.136719 -18.589844 18.972656 -18.609375 18.804688 -18.609375 L 21.761719 -18.609375 Z M 22.085938 -11.277344 "/></g></g></g><g fill="#004aad" fill-opacity="1"><g transform="translate(6.507575, 64.606212)"><g><path d="M 16.9375 2.3125 C 13.882812 2.3125 11.507812 1.914062 9.8125 1.125 C 8.125 0.332031 6.859375 -0.789062 6.015625 -2.25 C 5.179688 -3.707031 4.675781 -5.46875 4.5 -7.53125 C 4.332031 -9.59375 4.25 -11.890625 4.25 -14.421875 C 4.25 -16.441406 4.3125 -18.46875 4.4375 -20.5 C 4.570312 -22.539062 4.765625 -24.722656 5.015625 -27.046875 C 4.421875 -27.046875 3.953125 -27.035156 3.609375 -27.015625 C 3.265625 -26.992188 2.984375 -26.984375 2.765625 -26.984375 C 1.390625 -26.984375 0.203125 -27.28125 -0.796875 -27.875 C -1.804688 -28.476562 -2.3125 -29.40625 -2.3125 -30.65625 C -2.3125 -31.425781 -2.019531 -32.109375 -1.4375 -32.703125 C -0.863281 -33.304688 -0.128906 -33.820312 0.765625 -34.25 C 1.671875 -34.6875 2.648438 -35.03125 3.703125 -35.28125 C 4.753906 -35.539062 5.753906 -35.710938 6.703125 -35.796875 C 6.703125 -37.003906 6.785156 -38.335938 6.953125 -39.796875 C 7.128906 -41.253906 7.441406 -42.613281 7.890625 -43.875 C 8.335938 -45.144531 8.945312 -46.207031 9.71875 -47.0625 C 10.488281 -47.925781 11.476562 -48.359375 12.6875 -48.359375 C 13.375 -48.359375 13.984375 -48.15625 14.515625 -47.75 C 15.054688 -47.34375 15.5 -46.828125 15.84375 -46.203125 C 16.1875 -45.578125 16.441406 -44.878906 16.609375 -44.109375 C 16.785156 -43.335938 16.875 -42.585938 16.875 -41.859375 C 16.875 -40.992188 16.804688 -40.109375 16.671875 -39.203125 C 16.546875 -38.304688 16.3125 -37.191406 15.96875 -35.859375 C 16.695312 -35.953125 17.191406 -36.007812 17.453125 -36.03125 C 17.710938 -36.050781 17.945312 -36.0625 18.15625 -36.0625 C 18.882812 -36.0625 19.644531 -35.992188 20.4375 -35.859375 C 21.238281 -35.734375 21.96875 -35.519531 22.625 -35.21875 C 23.289062 -34.914062 23.835938 -34.519531 24.265625 -34.03125 C 24.703125 -33.539062 24.921875 -32.953125 24.921875 -32.265625 C 24.921875 -31.484375 24.609375 -30.789062 23.984375 -30.1875 C 23.359375 -29.59375 22.570312 -29.082031 21.625 -28.65625 C 20.6875 -28.226562 19.679688 -27.894531 18.609375 -27.65625 C 17.535156 -27.414062 16.523438 -27.253906 15.578125 -27.171875 C 15.328125 -25.410156 15.144531 -23.789062 15.03125 -22.3125 C 14.925781 -20.832031 14.8125 -19.34375 14.6875 -17.84375 C 14.59375 -17.101562 14.515625 -16.359375 14.453125 -15.609375 C 14.390625 -14.859375 14.359375 -14.097656 14.359375 -13.328125 C 14.359375 -12.765625 14.378906 -12.109375 14.421875 -11.359375 C 14.460938 -10.609375 14.613281 -9.890625 14.875 -9.203125 C 15.132812 -8.515625 15.539062 -7.925781 16.09375 -7.4375 C 16.65625 -6.945312 17.429688 -6.703125 18.421875 -6.703125 C 19.015625 -6.703125 19.632812 -6.753906 20.28125 -6.859375 C 20.925781 -6.960938 21.570312 -7.015625 22.21875 -7.015625 C 23.332031 -7.015625 24.132812 -6.628906 24.625 -5.859375 C 25.125 -5.085938 25.375 -4.097656 25.375 -2.890625 C 25.375 -1.992188 25.101562 -1.210938 24.5625 -0.546875 C 24.03125 0.117188 23.351562 0.65625 22.53125 1.0625 C 21.71875 1.46875 20.804688 1.773438 19.796875 1.984375 C 18.785156 2.203125 17.832031 2.3125 16.9375 2.3125 Z M 16.9375 2.3125 "/></g></g></g><g fill="#004aad" fill-opacity="1"><g transform="translate(35.125335, 64.606212)"><g><path d="M 14.171875 1.875 C 11.972656 1.875 10.054688 1.289062 8.421875 0.125 C 6.796875 -1.03125 5.425781 -2.507812 4.3125 -4.3125 C 3.195312 -6.113281 2.359375 -8.117188 1.796875 -10.328125 C 1.242188 -12.546875 0.96875 -14.726562 0.96875 -16.875 C 0.96875 -19.144531 1.242188 -21.492188 1.796875 -23.921875 C 2.359375 -26.347656 3.21875 -28.554688 4.375 -30.546875 C 5.539062 -32.546875 7.023438 -34.175781 8.828125 -35.4375 C 10.628906 -36.707031 12.773438 -37.34375 15.265625 -37.34375 C 17.660156 -37.34375 19.707031 -36.6875 21.40625 -35.375 C 23.101562 -34.070312 24.46875 -32.441406 25.5 -30.484375 C 26.53125 -28.535156 27.257812 -26.398438 27.6875 -24.078125 C 28.113281 -21.765625 28.265625 -19.578125 28.140625 -17.515625 C 28.015625 -15.242188 27.660156 -12.945312 27.078125 -10.625 C 26.492188 -8.300781 25.644531 -6.21875 24.53125 -4.375 C 23.414062 -2.53125 22 -1.03125 20.28125 0.125 C 18.5625 1.289062 16.523438 1.875 14.171875 1.875 Z M 14.8125 -27.234375 C 14.164062 -27.234375 13.59375 -26.890625 13.09375 -26.203125 C 12.601562 -25.515625 12.195312 -24.675781 11.875 -23.6875 C 11.550781 -22.707031 11.300781 -21.671875 11.125 -20.578125 C 10.957031 -19.484375 10.875 -18.523438 10.875 -17.703125 C 10.875 -16.671875 10.972656 -15.554688 11.171875 -14.359375 C 11.367188 -13.160156 11.632812 -12.054688 11.96875 -11.046875 C 12.3125 -10.035156 12.726562 -9.195312 13.21875 -8.53125 C 13.71875 -7.863281 14.289062 -7.53125 14.9375 -7.53125 C 15.625 -7.53125 16.210938 -7.851562 16.703125 -8.5 C 17.203125 -9.144531 17.601562 -9.957031 17.90625 -10.9375 C 18.207031 -11.925781 18.421875 -13.007812 18.546875 -14.1875 C 18.671875 -15.375 18.734375 -16.484375 18.734375 -17.515625 C 18.734375 -18.460938 18.644531 -19.503906 18.46875 -20.640625 C 18.300781 -21.773438 18.054688 -22.835938 17.734375 -23.828125 C 17.410156 -24.816406 17.003906 -25.628906 16.515625 -26.265625 C 16.023438 -26.910156 15.457031 -27.234375 14.8125 -27.234375 Z M 14.8125 -27.234375 "/></g></g></g><g fill="#004aad" fill-opacity="1"><g transform="translate(68.508187, 64.606212)"><g><path d="M 15.90625 18.734375 C 14.875 18.734375 13.703125 18.570312 12.390625 18.25 C 11.085938 17.925781 9.851562 17.460938 8.6875 16.859375 C 7.53125 16.265625 6.554688 15.535156 5.765625 14.671875 C 4.972656 13.816406 4.578125 12.832031 4.578125 11.71875 C 4.578125 11.289062 4.679688 10.859375 4.890625 10.421875 C 5.109375 9.992188 5.398438 9.617188 5.765625 9.296875 C 6.128906 8.984375 6.523438 8.726562 6.953125 8.53125 C 7.378906 8.34375 7.832031 8.25 8.3125 8.25 C 8.820312 8.25 9.320312 8.320312 9.8125 8.46875 C 10.3125 8.613281 10.816406 8.796875 11.328125 9.015625 C 11.890625 9.234375 12.4375 9.425781 12.96875 9.59375 C 13.507812 9.769531 14.082031 9.859375 14.6875 9.859375 C 15.757812 9.859375 16.691406 9.488281 17.484375 8.75 C 18.273438 8.019531 18.945312 7.066406 19.5 5.890625 C 20.0625 4.710938 20.515625 3.40625 20.859375 1.96875 C 21.203125 0.53125 21.46875 -0.894531 21.65625 -2.3125 C 21.851562 -3.726562 21.992188 -5.054688 22.078125 -6.296875 C 22.171875 -7.546875 22.238281 -8.5625 22.28125 -9.34375 C 20.78125 -7.0625 19.285156 -5.304688 17.796875 -4.078125 C 16.316406 -2.859375 14.503906 -2.25 12.359375 -2.25 C 10.734375 -2.25 9.304688 -2.59375 8.078125 -3.28125 C 6.859375 -3.96875 5.816406 -4.867188 4.953125 -5.984375 C 4.097656 -7.097656 3.390625 -8.375 2.828125 -9.8125 C 2.273438 -11.257812 1.859375 -12.753906 1.578125 -14.296875 C 1.296875 -15.835938 1.113281 -17.347656 1.03125 -18.828125 C 0.945312 -20.316406 0.945312 -21.679688 1.03125 -22.921875 C 1.070312 -23.867188 1.1875 -25.101562 1.375 -26.625 C 1.570312 -28.144531 1.882812 -29.632812 2.3125 -31.09375 C 2.75 -32.5625 3.351562 -33.796875 4.125 -34.796875 C 4.894531 -35.804688 5.898438 -36.269531 7.140625 -36.1875 C 7.960938 -36.144531 8.628906 -35.789062 9.140625 -35.125 C 9.660156 -34.457031 10.078125 -33.628906 10.390625 -32.640625 C 10.710938 -31.660156 10.945312 -30.578125 11.09375 -29.390625 C 11.25 -28.210938 11.347656 -27.039062 11.390625 -25.875 C 11.441406 -24.71875 11.453125 -23.65625 11.421875 -22.6875 C 11.398438 -21.726562 11.390625 -20.992188 11.390625 -20.484375 C 11.390625 -19.742188 11.410156 -19.007812 11.453125 -18.28125 C 11.503906 -17.550781 11.65625 -16.894531 11.90625 -16.3125 C 12.164062 -15.738281 12.5625 -15.28125 13.09375 -14.9375 C 13.632812 -14.59375 14.398438 -14.421875 15.390625 -14.421875 C 16.503906 -14.421875 17.394531 -14.695312 18.0625 -15.25 C 18.726562 -15.8125 19.222656 -16.507812 19.546875 -17.34375 C 19.867188 -18.1875 20.070312 -19.085938 20.15625 -20.046875 C 20.238281 -21.015625 20.28125 -21.929688 20.28125 -22.796875 C 20.28125 -23.398438 20.28125 -24.128906 20.28125 -24.984375 C 20.28125 -25.835938 20.289062 -26.738281 20.3125 -27.6875 C 20.332031 -28.632812 20.414062 -29.566406 20.5625 -30.484375 C 20.71875 -31.410156 20.957031 -32.25 21.28125 -33 C 21.601562 -33.75 22.03125 -34.359375 22.5625 -34.828125 C 23.101562 -35.304688 23.800781 -35.546875 24.65625 -35.546875 C 25.726562 -35.546875 26.648438 -35.125 27.421875 -34.28125 C 28.203125 -33.445312 28.859375 -32.351562 29.390625 -31 C 29.929688 -29.644531 30.363281 -28.148438 30.6875 -26.515625 C 31.007812 -24.890625 31.253906 -23.269531 31.421875 -21.65625 C 31.597656 -20.050781 31.71875 -18.570312 31.78125 -17.21875 C 31.84375 -15.875 31.875 -14.8125 31.875 -14.03125 C 31.875 -12.226562 31.804688 -10.175781 31.671875 -7.875 C 31.546875 -5.582031 31.300781 -3.222656 30.9375 -0.796875 C 30.570312 1.617188 30.023438 4 29.296875 6.34375 C 28.566406 8.6875 27.609375 10.78125 26.421875 12.625 C 25.242188 14.46875 23.796875 15.945312 22.078125 17.0625 C 20.367188 18.175781 18.3125 18.734375 15.90625 18.734375 Z M 15.90625 18.734375 "/></g></g></g><g fill="#004aad" fill-opacity="1"><g transform="translate(106.527345, 64.606212)"><g><path d="M 29.8125 -43.984375 C 29.8125 -42.910156 29.390625 -41.929688 28.546875 -41.046875 C 27.710938 -40.171875 26.707031 -39.398438 25.53125 -38.734375 C 24.351562 -38.066406 23.140625 -37.519531 21.890625 -37.09375 C 20.648438 -36.664062 19.617188 -36.363281 18.796875 -36.1875 C 18.453125 -32.882812 18.179688 -29.585938 17.984375 -26.296875 C 17.796875 -23.015625 17.703125 -19.722656 17.703125 -16.421875 C 17.703125 -14.660156 17.742188 -12.921875 17.828125 -11.203125 C 17.921875 -9.484375 17.96875 -7.765625 17.96875 -6.046875 C 17.96875 -5.273438 17.890625 -4.425781 17.734375 -3.5 C 17.585938 -2.582031 17.332031 -1.710938 16.96875 -0.890625 C 16.601562 -0.078125 16.097656 0.601562 15.453125 1.15625 C 14.804688 1.71875 14.015625 2 13.078125 2 C 11.953125 2 11.054688 1.6875 10.390625 1.0625 C 9.734375 0.4375 9.222656 -0.320312 8.859375 -1.21875 C 8.492188 -2.125 8.242188 -3.082031 8.109375 -4.09375 C 7.984375 -5.101562 7.921875 -6.015625 7.921875 -6.828125 C 7.835938 -9.398438 7.769531 -11.984375 7.71875 -14.578125 C 7.675781 -17.179688 7.65625 -19.789062 7.65625 -22.40625 C 7.65625 -24.59375 7.664062 -26.738281 7.6875 -28.84375 C 7.71875 -30.945312 7.734375 -33.09375 7.734375 -35.28125 C 7.128906 -35.195312 6.515625 -35.132812 5.890625 -35.09375 C 5.265625 -35.050781 4.632812 -35.03125 4 -35.03125 C 3.476562 -35.03125 2.796875 -35.082031 1.953125 -35.1875 C 1.117188 -35.289062 0.316406 -35.484375 -0.453125 -35.765625 C -1.222656 -36.046875 -1.882812 -36.429688 -2.4375 -36.921875 C -3 -37.421875 -3.28125 -38.054688 -3.28125 -38.828125 C -3.28125 -40.117188 -2.773438 -41.242188 -1.765625 -42.203125 C -0.753906 -43.171875 0.53125 -44.007812 2.09375 -44.71875 C 3.65625 -45.425781 5.390625 -46.023438 7.296875 -46.515625 C 9.210938 -47.015625 11.101562 -47.398438 12.96875 -47.671875 C 14.84375 -47.953125 16.5625 -48.15625 18.125 -48.28125 C 19.695312 -48.414062 20.910156 -48.484375 21.765625 -48.484375 C 22.578125 -48.484375 23.441406 -48.453125 24.359375 -48.390625 C 25.285156 -48.328125 26.15625 -48.144531 26.96875 -47.84375 C 27.789062 -47.539062 28.46875 -47.085938 29 -46.484375 C 29.539062 -45.890625 29.8125 -45.054688 29.8125 -43.984375 Z M 29.8125 -43.984375 "/></g></g></g><g fill="#004aad" fill-opacity="1"><g transform="translate(134.951926, 64.606212)"><g><path d="M 14.171875 1.875 C 11.972656 1.875 10.054688 1.289062 8.421875 0.125 C 6.796875 -1.03125 5.425781 -2.507812 4.3125 -4.3125 C 3.195312 -6.113281 2.359375 -8.117188 1.796875 -10.328125 C 1.242188 -12.546875 0.96875 -14.726562 0.96875 -16.875 C 0.96875 -19.144531 1.242188 -21.492188 1.796875 -23.921875 C 2.359375 -26.347656 3.21875 -28.554688 4.375 -30.546875 C 5.539062 -32.546875 7.023438 -34.175781 8.828125 -35.4375 C 10.628906 -36.707031 12.773438 -37.34375 15.265625 -37.34375 C 17.660156 -37.34375 19.707031 -36.6875 21.40625 -35.375 C 23.101562 -34.070312 24.46875 -32.441406 25.5 -30.484375 C 26.53125 -28.535156 27.257812 -26.398438 27.6875 -24.078125 C 28.113281 -21.765625 28.265625 -19.578125 28.140625 -17.515625 C 28.015625 -15.242188 27.660156 -12.945312 27.078125 -10.625 C 26.492188 -8.300781 25.644531 -6.21875 24.53125 -4.375 C 23.414062 -2.53125 22 -1.03125 20.28125 0.125 C 18.5625 1.289062 16.523438 1.875 14.171875 1.875 Z M 14.8125 -27.234375 C 14.164062 -27.234375 13.59375 -26.890625 13.09375 -26.203125 C 12.601562 -25.515625 12.195312 -24.675781 11.875 -23.6875 C 11.550781 -22.707031 11.300781 -21.671875 11.125 -20.578125 C 10.957031 -19.484375 10.875 -18.523438 10.875 -17.703125 C 10.875 -16.671875 10.972656 -15.554688 11.171875 -14.359375 C 11.367188 -13.160156 11.632812 -12.054688 11.96875 -11.046875 C 12.3125 -10.035156 12.726562 -9.195312 13.21875 -8.53125 C 13.71875 -7.863281 14.289062 -7.53125 14.9375 -7.53125 C 15.625 -7.53125 16.210938 -7.851562 16.703125 -8.5 C 17.203125 -9.144531 17.601562 -9.957031 17.90625 -10.9375 C 18.207031 -11.925781 18.421875 -13.007812 18.546875 -14.1875 C 18.671875 -15.375 18.734375 -16.484375 18.734375 -17.515625 C 18.734375 -18.460938 18.644531 -19.503906 18.46875 -20.640625 C 18.300781 -21.773438 18.054688 -22.835938 17.734375 -23.828125 C 17.410156 -24.816406 17.003906 -25.628906 16.515625 -26.265625 C 16.023438 -26.910156 15.457031 -27.234375 14.8125 -27.234375 Z M 14.8125 -27.234375 "/></g></g></g><g fill="#004aad" fill-opacity="1"><g transform="translate(168.334778, 64.606212)"><g><path d="M 31.421875 -19.1875 C 31.421875 -17.300781 31.21875 -15.226562 30.8125 -12.96875 C 30.40625 -10.71875 29.71875 -8.625 28.75 -6.6875 C 27.78125 -4.757812 26.515625 -3.148438 24.953125 -1.859375 C 23.390625 -0.578125 21.425781 0.0625 19.0625 0.0625 C 18.457031 0.0625 17.832031 0.0195312 17.1875 -0.0625 C 16.550781 -0.144531 15.941406 -0.296875 15.359375 -0.515625 C 14.773438 -0.734375 14.25 -1.023438 13.78125 -1.390625 C 13.3125 -1.753906 12.945312 -2.234375 12.6875 -2.828125 L 12.109375 6.4375 C 12.066406 7.425781 12.035156 8.609375 12.015625 9.984375 C 11.992188 11.359375 11.820312 12.664062 11.5 13.90625 C 11.175781 15.15625 10.632812 16.21875 9.875 17.09375 C 9.125 17.976562 8.039062 18.421875 6.625 18.421875 C 5.8125 18.421875 5.125 18 4.5625 17.15625 C 4.007812 16.320312 3.570312 15.257812 3.25 13.96875 C 2.925781 12.6875 2.675781 11.25 2.5 9.65625 C 2.332031 8.070312 2.226562 6.546875 2.1875 5.078125 C 2.144531 3.617188 2.125 2.289062 2.125 1.09375 C 2.125 -0.101562 2.125 -0.984375 2.125 -1.546875 C 2.125 -4.421875 2.101562 -7.285156 2.0625 -10.140625 C 2.019531 -12.992188 2 -15.859375 2 -18.734375 C 2 -19.253906 2 -20.0625 2 -21.15625 C 2 -22.25 2.039062 -23.4375 2.125 -24.71875 C 2.207031 -26.007812 2.34375 -27.34375 2.53125 -28.71875 C 2.726562 -30.09375 3.019531 -31.347656 3.40625 -32.484375 C 3.800781 -33.617188 4.296875 -34.539062 4.890625 -35.25 C 5.492188 -35.957031 6.222656 -36.3125 7.078125 -36.3125 C 7.640625 -36.3125 8.144531 -36.148438 8.59375 -35.828125 C 9.039062 -35.503906 9.425781 -35.097656 9.75 -34.609375 C 10.070312 -34.117188 10.335938 -33.59375 10.546875 -33.03125 C 10.765625 -32.476562 10.941406 -31.960938 11.078125 -31.484375 C 12.410156 -32.984375 13.941406 -34.117188 15.671875 -34.890625 C 17.410156 -35.671875 19.269531 -36.0625 21.25 -36.0625 C 23.3125 -36.0625 24.992188 -35.476562 26.296875 -34.3125 C 27.609375 -33.15625 28.640625 -31.71875 29.390625 -30 C 30.140625 -28.289062 30.664062 -26.457031 30.96875 -24.5 C 31.269531 -22.550781 31.421875 -20.78125 31.421875 -19.1875 Z M 22.21875 -19.703125 C 22.21875 -20.347656 22.160156 -21.003906 22.046875 -21.671875 C 21.941406 -22.335938 21.75 -22.957031 21.46875 -23.53125 C 21.195312 -24.113281 20.800781 -24.585938 20.28125 -24.953125 C 19.769531 -25.316406 19.128906 -25.5 18.359375 -25.5 C 17.328125 -25.5 16.238281 -25.164062 15.09375 -24.5 C 13.957031 -23.832031 13.113281 -23.070312 12.5625 -22.21875 C 12.34375 -21.875 12.210938 -21.3125 12.171875 -20.53125 C 12.128906 -19.757812 12.109375 -19.179688 12.109375 -18.796875 C 12.109375 -18.503906 12.117188 -18.109375 12.140625 -17.609375 C 12.160156 -17.117188 12.191406 -16.613281 12.234375 -16.09375 C 12.273438 -15.582031 12.328125 -15.085938 12.390625 -14.609375 C 12.453125 -14.140625 12.550781 -13.773438 12.6875 -13.515625 C 12.8125 -13.128906 13.085938 -12.773438 13.515625 -12.453125 C 13.953125 -12.140625 14.425781 -11.851562 14.9375 -11.59375 C 15.457031 -11.332031 15.984375 -11.132812 16.515625 -11 C 17.054688 -10.875 17.519531 -10.8125 17.90625 -10.8125 C 18.800781 -10.8125 19.523438 -11.15625 20.078125 -11.84375 C 20.640625 -12.53125 21.082031 -13.347656 21.40625 -14.296875 C 21.726562 -15.242188 21.941406 -16.21875 22.046875 -17.21875 C 22.160156 -18.226562 22.21875 -19.054688 22.21875 -19.703125 Z M 22.21875 -19.703125 "/></g></g></g><g fill="#004aad" fill-opacity="1"><g transform="translate(205.645611, 64.606212)"><g><path d="M 12.5625 -44.953125 C 12.5625 -44.347656 12.398438 -43.804688 12.078125 -43.328125 C 11.753906 -42.859375 11.332031 -42.441406 10.8125 -42.078125 C 10.300781 -41.710938 9.742188 -41.429688 9.140625 -41.234375 C 8.546875 -41.046875 7.988281 -40.953125 7.46875 -40.953125 C 6.613281 -40.953125 5.863281 -41.164062 5.21875 -41.59375 C 4.570312 -42.019531 4.25 -42.6875 4.25 -43.59375 C 4.25 -44.238281 4.410156 -44.804688 4.734375 -45.296875 C 5.054688 -45.796875 5.453125 -46.203125 5.921875 -46.515625 C 6.390625 -46.835938 6.925781 -47.082031 7.53125 -47.25 C 8.132812 -47.425781 8.710938 -47.515625 9.265625 -47.515625 C 10.085938 -47.515625 10.84375 -47.320312 11.53125 -46.9375 C 12.21875 -46.550781 12.5625 -45.890625 12.5625 -44.953125 Z M 13.078125 -23.046875 C 13.078125 -22.453125 13.078125 -21.820312 13.078125 -21.15625 C 13.078125 -20.488281 13.050781 -19.851562 13 -19.25 C 12.957031 -18.519531 12.9375 -17.539062 12.9375 -16.3125 C 12.9375 -15.09375 12.894531 -13.773438 12.8125 -12.359375 C 12.726562 -10.941406 12.585938 -9.503906 12.390625 -8.046875 C 12.203125 -6.585938 11.890625 -5.253906 11.453125 -4.046875 C 11.023438 -2.847656 10.457031 -1.875 9.75 -1.125 C 9.039062 -0.375 8.148438 0.0195312 7.078125 0.0625 C 6.265625 0.101562 5.578125 -0.21875 5.015625 -0.90625 C 4.460938 -1.59375 4.003906 -2.484375 3.640625 -3.578125 C 3.273438 -4.671875 3.003906 -5.890625 2.828125 -7.234375 C 2.660156 -8.585938 2.53125 -9.898438 2.4375 -11.171875 C 2.351562 -12.441406 2.3125 -13.613281 2.3125 -14.6875 C 2.3125 -15.757812 2.3125 -16.550781 2.3125 -17.0625 C 2.3125 -17.75 2.3125 -18.722656 2.3125 -19.984375 C 2.3125 -21.253906 2.351562 -22.617188 2.4375 -24.078125 C 2.53125 -25.535156 2.691406 -27.015625 2.921875 -28.515625 C 3.160156 -30.023438 3.503906 -31.398438 3.953125 -32.640625 C 4.410156 -33.890625 5.003906 -34.898438 5.734375 -35.671875 C 6.460938 -36.441406 7.382812 -36.828125 8.5 -36.828125 C 9.65625 -36.828125 10.535156 -36.25 11.140625 -35.09375 C 11.742188 -33.9375 12.191406 -32.582031 12.484375 -31.03125 C 12.785156 -29.488281 12.957031 -27.953125 13 -26.421875 C 13.050781 -24.898438 13.078125 -23.773438 13.078125 -23.046875 Z M 13.078125 -23.046875 "/></g></g></g><g fill="#004aad" fill-opacity="1"><g transform="translate(225.248344, 64.606212)"><g><path d="M 29.296875 -9.078125 C 29.296875 -8.304688 29.265625 -7.296875 29.203125 -6.046875 C 29.140625 -4.804688 28.957031 -3.59375 28.65625 -2.40625 C 28.351562 -1.226562 27.878906 -0.210938 27.234375 0.640625 C 26.585938 1.503906 25.6875 1.9375 24.53125 1.9375 C 22.945312 1.9375 21.722656 1.421875 20.859375 0.390625 C 20.003906 -0.640625 19.597656 -1.929688 19.640625 -3.484375 C 18.265625 -2.273438 16.707031 -1.328125 14.96875 -0.640625 C 13.226562 0.046875 11.457031 0.390625 9.65625 0.390625 C 8.414062 0.390625 7.234375 0.0859375 6.109375 -0.515625 C 4.992188 -1.117188 4.007812 -1.890625 3.15625 -2.828125 C 2.300781 -3.773438 1.613281 -4.835938 1.09375 -6.015625 C 0.582031 -7.203125 0.328125 -8.375 0.328125 -9.53125 C 0.328125 -11.59375 0.957031 -13.394531 2.21875 -14.9375 C 3.488281 -16.476562 5.046875 -17.796875 6.890625 -18.890625 C 8.734375 -19.992188 10.695312 -20.863281 12.78125 -21.5 C 14.863281 -22.144531 16.722656 -22.578125 18.359375 -22.796875 C 18.359375 -23.003906 18.367188 -23.191406 18.390625 -23.359375 C 18.410156 -23.535156 18.421875 -23.734375 18.421875 -23.953125 C 18.421875 -25.285156 18.054688 -26.359375 17.328125 -27.171875 C 16.597656 -27.984375 15.566406 -28.390625 14.234375 -28.390625 C 13.160156 -28.390625 12.234375 -28.207031 11.453125 -27.84375 C 10.679688 -27.476562 9.953125 -27.070312 9.265625 -26.625 C 8.585938 -26.175781 7.90625 -25.769531 7.21875 -25.40625 C 6.53125 -25.039062 5.753906 -24.859375 4.890625 -24.859375 C 3.953125 -24.859375 3.148438 -25.15625 2.484375 -25.75 C 1.816406 -26.351562 1.484375 -27.128906 1.484375 -28.078125 C 1.484375 -29.492188 1.898438 -30.78125 2.734375 -31.9375 C 3.578125 -33.09375 4.628906 -34.066406 5.890625 -34.859375 C 7.160156 -35.660156 8.535156 -36.285156 10.015625 -36.734375 C 11.492188 -37.179688 12.859375 -37.40625 14.109375 -37.40625 C 15.265625 -37.40625 16.421875 -37.265625 17.578125 -36.984375 C 18.734375 -36.710938 19.828125 -36.285156 20.859375 -35.703125 C 21.890625 -35.128906 22.820312 -34.421875 23.65625 -33.578125 C 24.5 -32.742188 25.175781 -31.769531 25.6875 -30.65625 C 26.457031 -29.0625 27.078125 -27.375 27.546875 -25.59375 C 28.023438 -23.8125 28.394531 -21.988281 28.65625 -20.125 C 28.914062 -18.257812 29.085938 -16.390625 29.171875 -14.515625 C 29.253906 -12.648438 29.296875 -10.835938 29.296875 -9.078125 Z M 19 -11.140625 L 18.796875 -15.515625 C 18.710938 -15.515625 18.628906 -15.523438 18.546875 -15.546875 C 18.460938 -15.566406 18.375 -15.578125 18.28125 -15.578125 C 17.726562 -15.578125 17.03125 -15.4375 16.1875 -15.15625 C 15.351562 -14.882812 14.550781 -14.5 13.78125 -14 C 13.007812 -13.507812 12.351562 -12.960938 11.8125 -12.359375 C 11.28125 -11.765625 11.015625 -11.144531 11.015625 -10.5 C 11.015625 -9.894531 11.226562 -9.484375 11.65625 -9.265625 C 12.082031 -9.054688 12.578125 -8.953125 13.140625 -8.953125 C 14.078125 -8.953125 15.082031 -9.195312 16.15625 -9.6875 C 17.226562 -10.1875 18.175781 -10.671875 19 -11.140625 Z M 19 -11.140625 "/></g></g></g></g></g><g fill="#000000" fill-opacity="1"><g transform="translate(139.138473, 242.602441)"><g><path d="M 5.96875 -0.265625 C 5.96875 -0.046875 5.40625 0.0625 4.28125 0.0625 C 3.15625 0.0625 2.59375 -0.046875 2.59375 -0.265625 L 2.59375 -8.8125 L 0.5625 -8.8125 C 0.363281 -8.8125 0.226562 -9.070312 0.15625 -9.59375 C 0.125 -9.84375 0.109375 -10.097656 0.109375 -10.359375 C 0.109375 -10.617188 0.125 -10.875 0.15625 -11.125 C 0.226562 -11.644531 0.363281 -11.90625 0.5625 -11.90625 L 7.953125 -11.90625 C 8.148438 -11.90625 8.285156 -11.644531 8.359375 -11.125 C 8.398438 -10.875 8.421875 -10.617188 8.421875 -10.359375 C 8.421875 -10.097656 8.398438 -9.84375 8.359375 -9.59375 C 8.285156 -9.070312 8.148438 -8.8125 7.953125 -8.8125 L 5.96875 -8.8125 Z M 5.96875 -0.265625 "/></g></g></g><g fill="#000000" fill-opacity="1"><g transform="translate(152.020491, 242.602441)"><g><path d="M 5.90625 0.171875 C 4.3125 0.171875 3.015625 -0.347656 2.015625 -1.390625 C 1.015625 -2.429688 0.515625 -3.953125 0.515625 -5.953125 C 0.515625 -7.953125 1.019531 -9.46875 2.03125 -10.5 C 3.039062 -11.53125 4.347656 -12.046875 5.953125 -12.046875 C 7.554688 -12.046875 8.851562 -11.539062 9.84375 -10.53125 C 10.832031 -9.519531 11.328125 -7.984375 11.328125 -5.921875 C 11.328125 -3.867188 10.820312 -2.335938 9.8125 -1.328125 C 8.800781 -0.328125 7.5 0.171875 5.90625 0.171875 Z M 5.90625 -8.78125 C 5.363281 -8.78125 4.910156 -8.53125 4.546875 -8.03125 C 4.179688 -7.539062 4 -6.84375 4 -5.9375 C 4 -5.039062 4.171875 -4.347656 4.515625 -3.859375 C 4.867188 -3.378906 5.332031 -3.140625 5.90625 -3.140625 C 6.476562 -3.140625 6.941406 -3.382812 7.296875 -3.875 C 7.660156 -4.363281 7.84375 -5.0625 7.84375 -5.96875 C 7.84375 -6.875 7.65625 -7.566406 7.28125 -8.046875 C 6.914062 -8.535156 6.457031 -8.78125 5.90625 -8.78125 Z M 5.90625 -8.78125 "/></g></g></g><g fill="#000000" fill-opacity="1"><g transform="translate(168.198991, 242.602441)"><g><path d="M 6.765625 -11.34375 C 6.910156 -11.738281 7.632812 -11.9375 8.9375 -11.9375 C 9.269531 -11.9375 9.660156 -11.910156 10.109375 -11.859375 C 10.554688 -11.816406 10.765625 -11.765625 10.734375 -11.703125 L 7.1875 -4.59375 L 7.1875 -0.4375 C 7.1875 -0.25 6.875 -0.113281 6.25 -0.03125 C 5.9375 0.0078125 5.625 0.03125 5.3125 0.03125 C 5.007812 0.03125 4.707031 0.015625 4.40625 -0.015625 C 3.78125 -0.0976562 3.46875 -0.238281 3.46875 -0.4375 L 3.46875 -4.484375 L -0.1875 -11.65625 C -0.226562 -11.726562 0.00390625 -11.796875 0.515625 -11.859375 C 1.023438 -11.921875 1.453125 -11.953125 1.796875 -11.953125 C 3.191406 -11.953125 3.957031 -11.75 4.09375 -11.34375 L 5.34375 -7.875 Z M 6.765625 -11.34375 "/></g></g></g><g fill="#000000" fill-opacity="1"><g transform="translate(190.547607, 242.602441)"><g><path d="M 1.296875 -4.140625 C 1.503906 -3.972656 1.875 -3.742188 2.40625 -3.453125 C 2.9375 -3.160156 3.441406 -3.015625 3.921875 -3.015625 C 4.398438 -3.015625 4.640625 -3.195312 4.640625 -3.5625 C 4.640625 -3.738281 4.570312 -3.890625 4.4375 -4.015625 C 4.300781 -4.148438 4.050781 -4.300781 3.6875 -4.46875 C 3.320312 -4.632812 3.046875 -4.765625 2.859375 -4.859375 C 2.679688 -4.960938 2.441406 -5.125 2.140625 -5.34375 C 1.847656 -5.5625 1.625 -5.789062 1.46875 -6.03125 C 1.007812 -6.675781 0.78125 -7.5 0.78125 -8.5 C 0.78125 -9.5 1.148438 -10.335938 1.890625 -11.015625 C 2.640625 -11.703125 3.613281 -12.046875 4.8125 -12.046875 C 5.625 -12.046875 6.375 -11.957031 7.0625 -11.78125 C 7.757812 -11.613281 8.117188 -11.382812 8.140625 -11.09375 C 8.140625 -11.0625 8.140625 -11.03125 8.140625 -11 C 8.140625 -10.601562 8.015625 -10.097656 7.765625 -9.484375 C 7.515625 -8.878906 7.335938 -8.546875 7.234375 -8.484375 C 6.515625 -8.859375 5.867188 -9.046875 5.296875 -9.046875 C 4.722656 -9.046875 4.4375 -8.84375 4.4375 -8.4375 C 4.4375 -8.1875 4.644531 -7.960938 5.0625 -7.765625 C 5.15625 -7.722656 5.285156 -7.660156 5.453125 -7.578125 C 5.628906 -7.503906 5.828125 -7.410156 6.046875 -7.296875 C 6.265625 -7.191406 6.5 -7.054688 6.75 -6.890625 C 7.007812 -6.722656 7.285156 -6.503906 7.578125 -6.234375 C 8.179688 -5.671875 8.484375 -4.925781 8.484375 -4 C 8.484375 -2.78125 8.148438 -1.785156 7.484375 -1.015625 C 6.816406 -0.242188 5.785156 0.148438 4.390625 0.171875 C 3.703125 0.171875 3.082031 0.113281 2.53125 0 C 1.988281 -0.113281 1.515625 -0.332031 1.109375 -0.65625 C 0.703125 -0.988281 0.5 -1.382812 0.5 -1.84375 C 0.5 -2.3125 0.582031 -2.773438 0.75 -3.234375 C 0.914062 -3.691406 1.097656 -3.992188 1.296875 -4.140625 Z M 1.296875 -4.140625 "/></g></g></g><g fill="#000000" fill-opacity="1"><g transform="translate(203.922397, 242.602441)"><g><path d="M 5.96875 -0.265625 C 5.96875 -0.046875 5.40625 0.0625 4.28125 0.0625 C 3.15625 0.0625 2.59375 -0.046875 2.59375 -0.265625 L 2.59375 -8.8125 L 0.5625 -8.8125 C 0.363281 -8.8125 0.226562 -9.070312 0.15625 -9.59375 C 0.125 -9.84375 0.109375 -10.097656 0.109375 -10.359375 C 0.109375 -10.617188 0.125 -10.875 0.15625 -11.125 C 0.226562 -11.644531 0.363281 -11.90625 0.5625 -11.90625 L 7.953125 -11.90625 C 8.148438 -11.90625 8.285156 -11.644531 8.359375 -11.125 C 8.398438 -10.875 8.421875 -10.617188 8.421875 -10.359375 C 8.421875 -10.097656 8.398438 -9.84375 8.359375 -9.59375 C 8.285156 -9.070312 8.148438 -8.8125 7.953125 -8.8125 L 5.96875 -8.8125 Z M 5.96875 -0.265625 "/></g></g></g><g fill="#000000" fill-opacity="1"><g transform="translate(216.804415, 242.602441)"><g><path d="M 5.90625 0.171875 C 4.3125 0.171875 3.015625 -0.347656 2.015625 -1.390625 C 1.015625 -2.429688 0.515625 -3.953125 0.515625 -5.953125 C 0.515625 -7.953125 1.019531 -9.46875 2.03125 -10.5 C 3.039062 -11.53125 4.347656 -12.046875 5.953125 -12.046875 C 7.554688 -12.046875 8.851562 -11.539062 9.84375 -10.53125 C 10.832031 -9.519531 11.328125 -7.984375 11.328125 -5.921875 C 11.328125 -3.867188 10.820312 -2.335938 9.8125 -1.328125 C 8.800781 -0.328125 7.5 0.171875 5.90625 0.171875 Z M 5.90625 -8.78125 C 5.363281 -8.78125 4.910156 -8.53125 4.546875 -8.03125 C 4.179688 -7.539062 4 -6.84375 4 -5.9375 C 4 -5.039062 4.171875 -4.347656 4.515625 -3.859375 C 4.867188 -3.378906 5.332031 -3.140625 5.90625 -3.140625 C 6.476562 -3.140625 6.941406 -3.382812 7.296875 -3.875 C 7.660156 -4.363281 7.84375 -5.0625 7.84375 -5.96875 C 7.84375 -6.875 7.65625 -7.566406 7.28125 -8.046875 C 6.914062 -8.535156 6.457031 -8.78125 5.90625 -8.78125 Z M 5.90625 -8.78125 "/></g></g></g><g fill="#000000" fill-opacity="1"><g transform="translate(232.982915, 242.602441)"><g><path d="M 4.09375 -0.234375 C 4.09375 -0.0546875 3.554688 0.03125 2.484375 0.03125 C 1.390625 0.03125 0.84375 -0.0507812 0.84375 -0.21875 L 0.84375 -11.3125 C 0.84375 -11.707031 1.054688 -11.90625 1.484375 -11.90625 L 4.71875 -11.90625 C 7.707031 -11.90625 9.203125 -10.742188 9.203125 -8.421875 C 9.203125 -7.710938 9.0625 -7.070312 8.78125 -6.5 C 8.507812 -5.925781 8.128906 -5.472656 7.640625 -5.140625 L 9.78125 -1.5625 C 9.6875 -1.289062 9.390625 -0.976562 8.890625 -0.625 C 8.210938 -0.132812 7.648438 0.109375 7.203125 0.109375 C 6.765625 0.109375 6.4375 -0.0507812 6.21875 -0.375 L 4.625 -4.09375 L 4.09375 -4.09375 Z M 4.09375 -8.890625 L 4.09375 -6.34375 L 4.1875 -6.34375 C 5.257812 -6.34375 5.796875 -6.789062 5.796875 -7.6875 C 5.796875 -8.09375 5.691406 -8.394531 5.484375 -8.59375 C 5.273438 -8.789062 4.929688 -8.890625 4.453125 -8.890625 Z M 4.09375 -8.890625 "/></g></g></g><g fill="#000000" fill-opacity="1"><g transform="translate(247.360241, 242.602441)"><g><path d="M 6.375 -7.171875 C 6.59375 -7.171875 6.703125 -6.773438 6.703125 -5.984375 C 6.703125 -5.742188 6.675781 -5.460938 6.625 -5.140625 C 6.570312 -4.816406 6.476562 -4.65625 6.34375 -4.65625 L 4.1875 -4.65625 L 4.1875 -2.953125 L 7.3125 -2.953125 C 7.5 -2.953125 7.628906 -2.703125 7.703125 -2.203125 C 7.734375 -1.992188 7.75 -1.765625 7.75 -1.515625 C 7.75 -1.273438 7.710938 -0.960938 7.640625 -0.578125 C 7.578125 -0.191406 7.46875 0 7.3125 0 L 1.5 0 C 1.0625 0 0.84375 -0.175781 0.84375 -0.53125 L 0.84375 -11.453125 C 0.84375 -11.753906 0.972656 -11.90625 1.234375 -11.90625 L 7.328125 -11.90625 C 7.566406 -11.90625 7.6875 -11.398438 7.6875 -10.390625 C 7.6875 -9.390625 7.566406 -8.890625 7.328125 -8.890625 L 4.1875 -8.890625 L 4.1875 -7.171875 Z M 6.375 -7.171875 "/></g></g></g></svg>